<?xml version="1.0" encoding="UTF-8" standalone="no"?>
<!-- Created with Inkscape (http://www.inkscape.org/) -->

<svg
   xmlns:dc="http://purl.org/dc/elements/1.1/"
   xmlns:cc="http://creativecommons.org/ns#"
   xmlns:rdf="http://www.w3.org/1999/02/22-rdf-syntax-ns#"
   xmlns:svg="http://www.w3.org/2000/svg"
   xmlns="http://www.w3.org/2000/svg"
   xmlns:sodipodi="http://sodipodi.sourceforge.net/DTD/sodipodi-0.dtd"
   xmlns:inkscape="http://www.inkscape.org/namespaces/inkscape"
   width="360"
   height="270"
   id="svg3302"
   version="1.1"
   inkscape:version="0.91 r13725"
   sodipodi:docname="fara-poze.svg"
   inkscape:export-filename="/var/www/html/nemutam-design/img/fara-poze.png"
   inkscape:export-xdpi="270"
   inkscape:export-ydpi="270">
  <defs
     id="defs3304">
    <filter
       style="color-interpolation-filters:sRGB"
       inkscape:label="Greyscale"
       id="filter3485">
      <feColorMatrix
         values="0.21 0.72 0.07 0 0 0.21 0.72 0.07 0 0 0.21 0.72 0.07 0 0 0 0 0 1 0 "
         id="feColorMatrix3487" />
    </filter>
    <filter
       style="color-interpolation-filters:sRGB"
       inkscape:label="Greyscale"
       id="filter3489">
      <feColorMatrix
         values="0.21 0.72 0.07 0 0 0.21 0.72 0.07 0 0 0.21 0.72 0.07 0 0 0 0 0 1 0 "
         id="feColorMatrix3491" />
    </filter>
    <filter
       style="color-interpolation-filters:sRGB"
       inkscape:label="Greyscale"
       id="filter3493">
      <feColorMatrix
         values="0.21 0.72 0.07 0 0 0.21 0.72 0.07 0 0 0.21 0.72 0.07 0 0 0 0 0 1 0 "
         id="feColorMatrix3495" />
    </filter>
  </defs>
  <sodipodi:namedview
     id="base"
     pagecolor="#ffffff"
     bordercolor="#666666"
     borderopacity="1.0"
     inkscape:pageopacity="0.0"
     inkscape:pageshadow="2"
     inkscape:zoom="1.5859281"
     inkscape:cx="98.836589"
     inkscape:cy="139.80934"
     inkscape:document-units="px"
     inkscape:current-layer="layer1"
     showgrid="false"
     fit-margin-top="0"
     fit-margin-left="0"
     fit-margin-right="0"
     fit-margin-bottom="0"
     inkscape:window-width="1920"
     inkscape:window-height="1056"
     inkscape:window-x="0"
     inkscape:window-y="24"
     inkscape:window-maximized="1" />
  <metadata
     id="metadata3307">
    <rdf:RDF>
      <cc:Work
         rdf:about="">
        <dc:format>image/svg+xml</dc:format>
        <dc:type
           rdf:resource="http://purl.org/dc/dcmitype/StillImage" />
        <dc:title></dc:title>
      </cc:Work>
    </rdf:RDF>
  </metadata>
  <g
     inkscape:label="Layer 1"
     inkscape:groupmode="layer"
     id="layer1"
     transform="translate(-149.1858,-120.3465)">
    <g
       id="g4194"
       transform="translate(8.1141421e-6,-5.0443648)"
       style="opacity:0.35">
      <ellipse
         transform="matrix(0.2189661,0,0,0.2189661,178.27747,265.11741)"
         id="ellipse43"
         ry="10.325306"
         rx="132.23552"
         cy="41.481964"
         cx="689.28455"
         style="fill:#e6e7e8;filter:url(#filter3485)" />
      <path
         transform="matrix(0.2189661,0,0,0.2189661,178.27747,265.11741)"
         id="path45"
         d="m 597.65372,-213.95422 c 6.36898,2.29913 16.51743,9.28819 22.02179,11.00871 -24.0851,5.50436 -51.61343,21.64188 -57.11997,38.19425 9.97815,3.78602 20.64625,4.81876 27.52615,4.81876 -17.89298,13.76417 -33.03269,37.50866 -33.03269,59.53045 11.69867,-4.81659 25.58074,0.567681 25.16807,1.853704 -12.78163,16.727039 -17.25542,48.041383 -7.62007,65.934359 5.56549,-7.15719 16.42355,-10.842772 28.12221,-16.006517 0.68559,14.796912 5.59824,17.727037 12.48033,26.672433 10.32312,13.0763917 32.68988,0.344978 43.70078,-8.598235 8.6026,10.6681 13.42137,11.593862 20.64624,15.825294 9.97815,5.8515161 34.40823,2.065498 41.29249,-12.041459 13.76416,7.569853 13.07639,18.9235406 28.21828,8.600418 15.82748,-10.325305 13.41919,-16.515249 14.10696,-33.032681 11.01089,-0.687771 23.74231,10.665916 32.6877,16.860226 4.81877,-12.38862 6.88208,-40.947511 -10.32312,-55.399446 12.84277,-2.35589 22.81873,0.342794 35.20735,6.537104 6.5371,-51.95841 -29.86893,-72.03697 -38.30341,-75.01294 13.58294,-6.32095 17.49559,-6.10479 31.65932,-4.12881 -9.98033,-19.96066 -28.21828,-36.13093 -57.11997,-35.10037 14.45194,-11.69648 14.1943,-9.33185 23.05454,-11.69648 -30.2816,-30.97155 -69.85138,-27.52832 -101.16573,-6.5371 -15.88424,-6.11134 -47.53265,-23.79253 -81.20725,1.71833 z"
         inkscape:connector-curvature="0"
         style="fill:#67c3c9;filter:url(#filter3485)" />
      <circle
         transform="matrix(0.2189661,0,0,0.2189661,178.27747,265.11741)"
         id="circle47"
         r="33.6353"
         cy="-127.5832"
         cx="643.82611"
         style="fill:#ffffff;filter:url(#filter3485)" />
      <circle
         transform="matrix(0.2189661,0,0,0.2189661,178.27747,265.11741)"
         id="circle49"
         r="33.569798"
         cy="-142.74254"
         cx="730.44818"
         style="fill:#ffffff;filter:url(#filter3485)" />
      <g
         id="g51"
         transform="matrix(0.47809091,0,0,0.47809091,254.53248,-154.79377)"
         style="filter:url(#filter3485)">
        <path
           id="path53"
           d="m 206.931,806.771 c 1.741,-0.153 3.537,-0.058 5.588,0.226 2.708,0.371 4.926,-1.966 3.558,-4.631 -4.224,-8.229 -10.992,-14.028 -19.321,-16.42 0.62,-0.12 1.24,-0.23 1.835,-0.382 2.309,-0.589 3.048,-3.618 1.391,-5.269 -6.771,-6.749 -15.18,-10.86 -24.778,-11.332 -8.504,-0.418 -16.974,2.612 -24.137,7.057 -5.099,-2.022 -10.071,-4.099 -15.602,-4.735 -8.013,-0.923 -15.606,1.263 -22.158,5.841 -1.204,0.316 -1.952,1.55 -2.024,2.863 -0.132,1.759 1.11,3.555 2.74,3.645 0.676,0.294 1.341,0.612 1.992,0.957 -8.805,3.274 -17.747,8.879 -20.903,17.426 -0.627,1.698 0.693,3.339 2.202,3.877 1.998,0.714 4.049,1.243 6.127,1.622 -6.325,6.754 -10.773,15.553 -10.963,24.81 -0.04,1.94 2.063,3.73 3.99,3.039 1.939,-0.694 3.718,-0.859 5.763,-0.692 0.072,0.005 0.145,0.02 0.216,0.029 -4.99,8.961 -6.085,21.223 -1.501,30.262 0.876,1.727 3.671,2.138 4.951,0.639 2.084,-2.446 5.097,-3.896 8.13,-5.15 0.501,2.096 1.327,4.066 2.703,5.916 2.007,2.693 4.211,5.998 7.579,7.042 4.123,1.279 8.389,0.241 12.297,-1.686 l 0,11.26 c -1.481,-0.351 -3.035,-0.541 -4.639,-0.541 -9.27,0 -16.922,6.245 -18.114,14.341 l 36.229,0 c -0.556,-3.772 -2.514,-7.142 -5.385,-9.667 l 0,-16.071 c 3.394,2.644 7.405,4.538 11.648,4.861 3.579,0.271 7.516,-0.539 10.835,-2.326 l 0,11.936 c -4.017,2.597 -6.826,6.628 -7.508,11.268 l 36.229,0 c -1.192,-8.096 -8.845,-14.341 -18.115,-14.341 -0.927,0 -1.836,0.063 -2.726,0.186 l 0,-8.987 c 0.521,0.355 1.069,0.669 1.659,0.916 3.597,1.504 7.208,-0.916 10.025,-2.945 2.567,-1.849 4.503,-4.04 5.611,-7.016 0.688,-1.85 0.798,-3.952 0.808,-6.023 3.772,1.296 7.217,4.594 10.25,6.733 1.79,1.264 3.98,-0.129 4.63,-1.884 2.657,-7.187 2.435,-16.319 -1.388,-23.206 2.796,0.403 5.475,1.403 8.154,2.71 2.299,1.122 4.462,-0.285 4.743,-2.721 1.411,-12.266 -2.74,-25.91 -12.621,-33.437 z m -20.051,48.09 c -0.161,4.501 0.417,8.138 -3.273,11.268 -1.081,0.917 -3.784,3.359 -5.182,2.187 -2.069,-1.735 -3.829,-3.596 -6.187,-4.987 -1.441,-0.85 -3.499,-0.375 -4.312,1.131 -2.187,4.053 -7.29,5.285 -11.581,5.142 -4.561,-0.15 -9.119,-4.25 -11.836,-7.512 -1.188,-1.427 -3.213,-0.991 -4.458,0 -3.408,2.711 -8.795,6.397 -13.4,5.447 -1.985,-0.408 -3.357,-2.995 -4.553,-4.461 -1.69,-2.072 -2.227,-4.409 -2.397,-7.035 -0.167,-2.558 -2.511,-3.693 -4.743,-2.721 -3.301,1.438 -6.898,2.712 -9.945,4.725 -1.729,-6.75 -0.041,-14.723 3.106,-20.578 0.871,-1.619 2.627,-3.114 2.079,-5.13 -0.419,-1.544 -1.68,-2.282 -3.058,-2.845 -2.477,-1.011 -5.246,-1.383 -7.944,-1.153 1.545,-8.387 7.216,-15.855 13.793,-21.05 2.272,-1.795 0.274,-5.351 -2.229,-5.38 -2.746,-0.031 -5.42,-0.364 -8.048,-0.994 1.98,-2.711 5.032,-4.8 7.738,-6.495 4.513,-2.831 9.535,-4.78 14.701,-6.021 3.235,-0.775 2.769,-5.089 0,-6.078 -1.581,-0.563 -3.068,-1.361 -4.545,-2.19 5.332,-2.616 11.073,-3.403 17.251,-2.08 2.889,0.617 5.679,1.653 8.414,2.753 2.609,1.05 4.873,2.675 7.526,0.932 6.113,-4.016 13.19,-6.452 20.527,-6.487 6.292,-0.029 12.074,2.26 16.999,5.894 -2.319,1.173 -4.337,2.893 -6.357,4.513 -2.205,1.768 -0.33,5.434 2.229,5.381 8.393,-0.175 15.195,3.212 20.035,9.243 -0.526,0.011 -1.054,0.034 -1.583,0.093 -2.978,0.328 -5.682,1.525 -8.381,2.756 -2.725,1.241 -1.527,4.93 0.753,5.761 0.1,0.037 0.168,0.062 0.215,0.077 0.015,0.006 0.026,0.012 0.044,0.02 0.355,0.159 0.7,0.337 1.044,0.516 0.887,0.458 1.733,0.991 2.561,1.546 2.174,1.458 4.049,3.336 5.72,5.337 4.507,5.402 6.05,12.34 5.948,19.209 -4.515,-1.62 -9.038,-2.238 -14.114,-1.42 -2.319,0.373 -3.053,3.791 -1.39,5.267 4.882,4.338 6.174,11.49 5.085,17.895 -3.935,-2.884 -8.106,-5.655 -13.101,-5.624 -1.764,0.007 -3.09,1.423 -3.151,3.148 z m -81.943,-19.499 c 0.19,0.086 0.144,0.105 0,0 l 0,0 z"
           inkscape:connector-curvature="0" />
      </g>
      <path
         transform="matrix(0.2189661,0,0,0.2189661,178.27747,265.11741)"
         id="path55"
         d="m 697.69718,-200.54595 c 13.89735,-9.94321 33.27067,-14.33621 49.23134,-9.97377 3.69431,1.00873 5.26199,-5.62663 1.56549,-6.63755 -17.47812,-4.77728 -38.51083,-0.24017 -53.76844,10.67029 -3.23144,2.31004 -0.27729,8.26417 2.97161,5.94103 l 0,0 z"
         inkscape:connector-curvature="0"
         style="fill:#9edae2;filter:url(#filter3485)" />
      <path
         transform="matrix(0.2189661,0,0,0.2189661,178.27747,265.11741)"
         id="path57"
         d="m 589.98343,-171.2971 c 9.16374,-5.07204 18.6921,-9.6681 29.11348,-11.3515 4.37335,-0.71179 2.51091,-7.33842 -1.82751,-6.63973 -10.95849,1.77292 -21.12659,6.71396 -30.75758,12.05019 -3.88427,2.14847 -0.41266,8.09387 3.47161,5.94104 l 0,0 z"
         inkscape:connector-curvature="0"
         style="fill:#9edae2;filter:url(#filter3485)" />
      <circle
         transform="matrix(0.2189661,0,0,0.2189661,178.27747,264.99918)"
         id="circle59"
         r="12.390804"
         cy="-122.29935"
         cx="732.83679"
         style="filter:url(#filter3485)" />
      <circle
         transform="matrix(0.2189661,0,0,0.2189661,178.27747,265.11741)"
         id="circle61"
         r="12.390804"
         cy="-107.11616"
         cx="646.66284"
         style="filter:url(#filter3485)" />
      <path
         transform="matrix(0.2189661,0,0,0.2189661,178.27747,265.11741)"
         id="path63"
         d="m 643.82611,-169.47833 c -23.10038,0 -41.89511,18.79472 -41.89511,41.89511 0,23.09821 18.79254,41.895109 41.89511,41.895109 23.10257,0 41.89511,-18.794719 41.89511,-41.895109 0,-23.10039 -18.79472,-41.89511 -41.89511,-41.89511 z m 0,67.27497 c -13.99342,0 -25.37767,-11.38862 -25.37767,-25.37986 0,-13.99342 11.38425,-25.37767 25.37767,-25.37767 13.99342,0 25.37768,11.38425 25.37768,25.37767 0,13.99124 -11.38426,25.37986 -25.37768,25.37986 z"
         inkscape:connector-curvature="0"
         style="filter:url(#filter3485)" />
      <path
         transform="matrix(0.2189661,0,0,0.2189661,178.27747,265.11741)"
         id="path65"
         d="m 730.44602,-184.57436 c -23.06327,0 -41.82743,18.76633 -41.82743,41.8296 0,23.06109 18.76416,41.82524 41.82743,41.82524 23.06545,0 41.8296,-18.76415 41.8296,-41.82524 0,-23.06327 -18.76415,-41.8296 -41.8296,-41.8296 z m 0,67.13959 c -13.95412,0 -25.30999,-11.35587 -25.30999,-25.30999 0,-13.95848 11.35587,-25.31217 25.30999,-25.31217 13.9563,0 25.31217,11.35369 25.31217,25.31217 0,13.95412 -11.35587,25.30999 -25.31217,25.30999 z"
         inkscape:connector-curvature="0"
         style="filter:url(#filter3485)" />
    </g>
    <flowRoot
       xml:space="preserve"
       id="flowRoot3359"
       style="font-style:normal;font-weight:normal;font-size:101.85458374px;line-height:125%;font-family:sans-serif;letter-spacing:0px;word-spacing:0px;opacity:0.5;fill:#343a40;fill-opacity:1;stroke:none;stroke-width:1px;stroke-linecap:butt;stroke-linejoin:miter;stroke-opacity:1;filter:url(#filter3489)"
       transform="matrix(1.1352091,0,0,1.1352091,-222.96279,37.09842)"><flowRegion
         id="flowRegion3361"><rect
           id="rect3363"
           width="1684.8019"
           height="298.37714"
           x="452.58813"
           y="210.15352"
           style="fill:#343a40;fill-opacity:1" /></flowRegion><flowPara
         id="flowPara3365"
         style="font-style:normal;font-variant:normal;font-weight:normal;font-stretch:normal;font-size:15.41566181px;font-family:Roboto;-inkscape-font-specification:Roboto;fill:#343a40;fill-opacity:1">Fără poze</flowPara></flowRoot>  </g>
</svg>
