<?xml version="1.0" encoding="UTF-8" standalone="no"?>
<!-- Created with Inkscape (http://www.inkscape.org/) -->

<svg
   xmlns:dc="http://purl.org/dc/elements/1.1/"
   xmlns:cc="http://creativecommons.org/ns#"
   xmlns:rdf="http://www.w3.org/1999/02/22-rdf-syntax-ns#"
   xmlns:svg="http://www.w3.org/2000/svg"
   xmlns="http://www.w3.org/2000/svg"
   xmlns:sodipodi="http://sodipodi.sourceforge.net/DTD/sodipodi-0.dtd"
   xmlns:inkscape="http://www.inkscape.org/namespaces/inkscape"
   width="1200"
   height="630"
   id="svg3302"
   version="1.1"
   inkscape:version="0.91 r13725"
   sodipodi:docname="og-image.svg">
  <defs
     id="defs3304" />
  <sodipodi:namedview
     id="base"
     pagecolor="#ffffff"
     bordercolor="#666666"
     borderopacity="1.0"
     inkscape:pageopacity="0.0"
     inkscape:pageshadow="2"
     inkscape:zoom="0.35"
     inkscape:cx="35.098446"
     inkscape:cy="579.01778"
     inkscape:document-units="px"
     inkscape:current-layer="layer1"
     showgrid="false"
     fit-margin-top="0"
     fit-margin-left="0"
     fit-margin-right="0"
     fit-margin-bottom="0"
     inkscape:window-width="1920"
     inkscape:window-height="1056"
     inkscape:window-x="0"
     inkscape:window-y="24"
     inkscape:window-maximized="1" />
  <metadata
     id="metadata3307">
    <rdf:RDF>
      <cc:Work
         rdf:about="">
        <dc:format>image/svg+xml</dc:format>
        <dc:type
           rdf:resource="http://purl.org/dc/dcmitype/StillImage" />
        <dc:title></dc:title>
      </cc:Work>
    </rdf:RDF>
  </metadata>
  <g
     inkscape:label="Layer 1"
     inkscape:groupmode="layer"
     id="layer1"
     transform="translate(-149.1858,239.6535)">
    <g
       id="g3345"
       transform="matrix(2.1834015,0,0,2.1834015,284.4332,-704.47588)">
      <ellipse
         id="ellipse43"
         ry="4.7290001"
         rx="60.563999"
         cy="897.30701"
         cx="156.194"
         style="fill:#e6e7e8"
         transform="translate(56.70836,-511.68951)" />
      <path
         id="path45"
         d="m 170.93536,268.62749 c 2.917,1.053 7.565,4.254 10.086,5.042 -11.031,2.521 -23.639,9.912 -26.161,17.493 4.57,1.734 9.456,2.207 12.607,2.207 -8.195,6.304 -15.129,17.179 -15.129,27.265 5.358,-2.206 11.716,0.26 11.527,0.849 -5.854,7.661 -7.903,22.003 -3.49,30.198 2.549,-3.278 7.522,-4.966 12.88,-7.331 0.314,6.777 2.564,8.119 5.716,12.216 4.728,5.989 14.972,0.158 20.015,-3.938 3.94,4.886 6.147,5.31 9.456,7.248 4.57,2.68 15.759,0.946 18.912,-5.515 6.304,3.467 5.989,8.667 12.924,3.939 7.249,-4.729 6.146,-7.564 6.461,-15.129 5.043,-0.315 10.874,4.885 14.971,7.722 2.207,-5.674 3.152,-18.754 -4.728,-25.373 5.882,-1.079 10.451,0.157 16.125,2.994 2.994,-23.797 -13.68,-32.993 -17.543,-34.356 6.221,-2.895 8.013,-2.796 14.5,-1.891 -4.571,-9.142 -12.924,-16.548 -26.161,-16.076 6.619,-5.357 6.501,-4.274 10.559,-5.357 -13.869,-14.185 -31.992,-12.608 -46.334,-2.994 -7.275,-2.799 -21.77,-10.897 -37.193,0.787 z"
         inkscape:connector-curvature="0"
         style="fill:#67c3c9" />
      <circle
         id="circle47"
         r="15.405"
         cy="819.875"
         cx="135.37399"
         style="fill:#ffffff"
         transform="translate(56.70836,-511.68951)" />
      <circle
         id="circle49"
         r="15.375"
         cy="812.93201"
         cx="175.047"
         style="fill:#ffffff"
         transform="translate(56.70836,-511.68951)" />
      <g
         id="g51"
         transform="translate(56.70836,-511.68951)">
        <path
           id="path53"
           d="m 206.931,806.771 c 1.741,-0.153 3.537,-0.058 5.588,0.226 2.708,0.371 4.926,-1.966 3.558,-4.631 -4.224,-8.229 -10.992,-14.028 -19.321,-16.42 0.62,-0.12 1.24,-0.23 1.835,-0.382 2.309,-0.589 3.048,-3.618 1.391,-5.269 -6.771,-6.749 -15.18,-10.86 -24.778,-11.332 -8.504,-0.418 -16.974,2.612 -24.137,7.057 -5.099,-2.022 -10.071,-4.099 -15.602,-4.735 -8.013,-0.923 -15.606,1.263 -22.158,5.841 -1.204,0.316 -1.952,1.55 -2.024,2.863 -0.132,1.759 1.11,3.555 2.74,3.645 0.676,0.294 1.341,0.612 1.992,0.957 -8.805,3.274 -17.747,8.879 -20.903,17.426 -0.627,1.698 0.693,3.339 2.202,3.877 1.998,0.714 4.049,1.243 6.127,1.622 -6.325,6.754 -10.773,15.553 -10.963,24.81 -0.04,1.94 2.063,3.73 3.99,3.039 1.939,-0.694 3.718,-0.859 5.763,-0.692 0.072,0.005 0.145,0.02 0.216,0.029 -4.99,8.961 -6.085,21.223 -1.501,30.262 0.876,1.727 3.671,2.138 4.951,0.639 2.084,-2.446 5.097,-3.896 8.13,-5.15 0.501,2.096 1.327,4.066 2.703,5.916 2.007,2.693 4.211,5.998 7.579,7.042 4.123,1.279 8.389,0.241 12.297,-1.686 l 0,11.26 c -1.481,-0.351 -3.035,-0.541 -4.639,-0.541 -9.27,0 -16.922,6.245 -18.114,14.341 l 36.229,0 c -0.556,-3.772 -2.514,-7.142 -5.385,-9.667 l 0,-16.071 c 3.394,2.644 7.405,4.538 11.648,4.861 3.579,0.271 7.516,-0.539 10.835,-2.326 l 0,11.936 c -4.017,2.597 -6.826,6.628 -7.508,11.268 l 36.229,0 c -1.192,-8.096 -8.845,-14.341 -18.115,-14.341 -0.927,0 -1.836,0.063 -2.726,0.186 l 0,-8.987 c 0.521,0.355 1.069,0.669 1.659,0.916 3.597,1.504 7.208,-0.916 10.025,-2.945 2.567,-1.849 4.503,-4.04 5.611,-7.016 0.688,-1.85 0.798,-3.952 0.808,-6.023 3.772,1.296 7.217,4.594 10.25,6.733 1.79,1.264 3.98,-0.129 4.63,-1.884 2.657,-7.187 2.435,-16.319 -1.388,-23.206 2.796,0.403 5.475,1.403 8.154,2.71 2.299,1.122 4.462,-0.285 4.743,-2.721 1.411,-12.266 -2.74,-25.91 -12.621,-33.437 z m -20.051,48.09 c -0.161,4.501 0.417,8.138 -3.273,11.268 -1.081,0.917 -3.784,3.359 -5.182,2.187 -2.069,-1.735 -3.829,-3.596 -6.187,-4.987 -1.441,-0.85 -3.499,-0.375 -4.312,1.131 -2.187,4.053 -7.29,5.285 -11.581,5.142 -4.561,-0.15 -9.119,-4.25 -11.836,-7.512 -1.188,-1.427 -3.213,-0.991 -4.458,0 -3.408,2.711 -8.795,6.397 -13.4,5.447 -1.985,-0.408 -3.357,-2.995 -4.553,-4.461 -1.69,-2.072 -2.227,-4.409 -2.397,-7.035 -0.167,-2.558 -2.511,-3.693 -4.743,-2.721 -3.301,1.438 -6.898,2.712 -9.945,4.725 -1.729,-6.75 -0.041,-14.723 3.106,-20.578 0.871,-1.619 2.627,-3.114 2.079,-5.13 -0.419,-1.544 -1.68,-2.282 -3.058,-2.845 -2.477,-1.011 -5.246,-1.383 -7.944,-1.153 1.545,-8.387 7.216,-15.855 13.793,-21.05 2.272,-1.795 0.274,-5.351 -2.229,-5.38 -2.746,-0.031 -5.42,-0.364 -8.048,-0.994 1.98,-2.711 5.032,-4.8 7.738,-6.495 4.513,-2.831 9.535,-4.78 14.701,-6.021 3.235,-0.775 2.769,-5.089 0,-6.078 -1.581,-0.563 -3.068,-1.361 -4.545,-2.19 5.332,-2.616 11.073,-3.403 17.251,-2.08 2.889,0.617 5.679,1.653 8.414,2.753 2.609,1.05 4.873,2.675 7.526,0.932 6.113,-4.016 13.19,-6.452 20.527,-6.487 6.292,-0.029 12.074,2.26 16.999,5.894 -2.319,1.173 -4.337,2.893 -6.357,4.513 -2.205,1.768 -0.33,5.434 2.229,5.381 8.393,-0.175 15.195,3.212 20.035,9.243 -0.526,0.011 -1.054,0.034 -1.583,0.093 -2.978,0.328 -5.682,1.525 -8.381,2.756 -2.725,1.241 -1.527,4.93 0.753,5.761 0.1,0.037 0.168,0.062 0.215,0.077 0.015,0.006 0.026,0.012 0.044,0.02 0.355,0.159 0.7,0.337 1.044,0.516 0.887,0.458 1.733,0.991 2.561,1.546 2.174,1.458 4.049,3.336 5.72,5.337 4.507,5.402 6.05,12.34 5.948,19.209 -4.515,-1.62 -9.038,-2.238 -14.114,-1.42 -2.319,0.373 -3.053,3.791 -1.39,5.267 4.882,4.338 6.174,11.49 5.085,17.895 -3.935,-2.884 -8.106,-5.655 -13.101,-5.624 -1.764,0.007 -3.09,1.423 -3.151,3.148 z m -81.943,-19.499 c 0.19,0.086 0.144,0.105 0,0 l 0,0 z"
           inkscape:connector-curvature="0" />
      </g>
      <path
         id="path55"
         d="m 216.75536,274.76849 c 6.365,-4.554 15.238,-6.566 22.548,-4.568 1.692,0.462 2.41,-2.577 0.717,-3.04 -8.005,-2.188 -17.638,-0.11 -24.626,4.887 -1.48,1.058 -0.127,3.785 1.361,2.721 l 0,0 z"
         inkscape:connector-curvature="0"
         style="fill:#9edae2" />
      <path
         id="path57"
         d="m 167.42236,288.16449 c 4.197,-2.323 8.561,-4.428 13.334,-5.199 2.003,-0.326 1.15,-3.361 -0.837,-3.041 -5.019,0.812 -9.676,3.075 -14.087,5.519 -1.779,0.984 -0.189,3.707 1.59,2.721 l 0,0 z"
         inkscape:connector-curvature="0"
         style="fill:#9edae2" />
      <circle
         id="circle59"
         r="5.6750002"
         cy="807.63898"
         cx="180.72099"
         transform="translate(56.70836,-511.68951)" />
      <circle
         id="circle61"
         r="5.6750002"
         cy="813.31299"
         cx="141.049"
         transform="translate(56.70836,-511.68951)" />
      <path
         id="path63"
         d="m 192.08236,288.99749 c -10.58,0 -19.188,8.608 -19.188,19.188 0,10.579 8.607,19.188 19.188,19.188 10.581,0 19.188,-8.608 19.188,-19.188 0,-10.58 -8.608,-19.188 -19.188,-19.188 z m 0,30.812 c -6.409,0 -11.623,-5.216 -11.623,-11.624 0,-6.409 5.214,-11.623 11.623,-11.623 6.409,0 11.623,5.214 11.623,11.623 0,6.408 -5.214,11.624 -11.623,11.624 z"
         inkscape:connector-curvature="0" />
      <path
         id="path65"
         d="m 231.75436,282.08349 c -10.563,0 -19.157,8.595 -19.157,19.158 0,10.562 8.594,19.156 19.157,19.156 10.564,0 19.158,-8.594 19.158,-19.156 0,-10.563 -8.594,-19.158 -19.158,-19.158 z m 0,30.75 c -6.391,0 -11.592,-5.201 -11.592,-11.592 0,-6.393 5.201,-11.593 11.592,-11.593 6.392,0 11.593,5.2 11.593,11.593 0,6.391 -5.201,11.592 -11.593,11.592 z"
         inkscape:connector-curvature="0" />
    </g>
    <flowRoot
       xml:space="preserve"
       id="flowRoot3359"
       style="font-style:normal;font-weight:normal;font-size:101.85458374px;line-height:125%;font-family:sans-serif;letter-spacing:0px;word-spacing:0px;fill:#343a40;fill-opacity:1;stroke:none;stroke-width:1px;stroke-linecap:butt;stroke-linejoin:miter;stroke-opacity:1"
       transform="matrix(1.1352091,0,0,1.1352091,-95.327827,-81.651436)"><flowRegion
         id="flowRegion3361"><rect
           id="rect3363"
           width="1684.8019"
           height="298.37714"
           x="452.58813"
           y="210.15352"
           style="fill:#343a40;fill-opacity:1" /></flowRegion><flowPara
         id="flowPara3365"
         style="font-style:normal;font-variant:normal;font-weight:500;font-stretch:normal;font-family:Roboto;-inkscape-font-specification:'Roboto Medium';fill:#343a40;fill-opacity:1">ne mutam.ro</flowPara></flowRoot>  </g>
</svg>
