<?xml version="1.0" encoding="UTF-8" standalone="no"?>
<svg
   xmlns:dc="http://purl.org/dc/elements/1.1/"
   xmlns:cc="http://creativecommons.org/ns#"
   xmlns:rdf="http://www.w3.org/1999/02/22-rdf-syntax-ns#"
   xmlns:svg="http://www.w3.org/2000/svg"
   xmlns="http://www.w3.org/2000/svg"
   version="1.1"
   id="svg2"
   viewBox="0 0 36.837161 10.574341"
   height="2.984314mm"
   width="10.396265mm">
  <defs
     id="defs4" />
  <metadata
     id="metadata7">
    <rdf:RDF>
      <cc:Work
         rdf:about="">
        <dc:format>image/svg+xml</dc:format>
        <dc:type
           rdf:resource="http://purl.org/dc/dcmitype/StillImage" />
        <dc:title></dc:title>
      </cc:Work>
    </rdf:RDF>
  </metadata>
  <g
     transform="translate(-279.94374,-102.74355)"
     id="layer1">
    <g
       id="flowRoot4136"
       style="font-style:normal;font-weight:normal;font-size:40px;line-height:125%;font-family:sans-serif;letter-spacing:0px;word-spacing:0px;fill:#000000;fill-opacity:1;stroke:none;stroke-width:1px;stroke-linecap:butt;stroke-linejoin:miter;stroke-opacity:1"
       transform="translate(-38.928571,-29.642857)">
      <path
         id="path4160"
         style="font-style:normal;font-variant:normal;font-weight:normal;font-stretch:normal;font-size:11.25px;font-family:Arial;-inkscape-font-specification:Arial;text-align:center;text-anchor:middle;fill:#725034;fill-opacity:1"
         d="m 318.87231,140.57672 0,-8.05298 3.02124,0 q 0.92286,0 1.47767,0.24719 0.5603,0.2417 0.87341,0.75257 0.3186,0.50537 0.3186,1.06018 0,0.51635 -0.28015,0.97229 -0.28015,0.45593 -0.84595,0.73608 0.73059,0.21423 1.12061,0.73059 0.39551,0.51636 0.39551,1.21948 0,0.5658 -0.2417,1.05469 -0.23621,0.4834 -0.58777,0.74707 -0.35156,0.26367 -0.8844,0.401 -0.52734,0.13184 -1.29639,0.13184 l -3.07068,0 z m 1.06568,-4.66919 1.74133,0 q 0.70862,0 1.01624,-0.0934 0.40649,-0.12085 0.60974,-0.401 0.20874,-0.28016 0.20874,-0.70313 0,-0.401 -0.19226,-0.70312 -0.19226,-0.30762 -0.54932,-0.41749 -0.35705,-0.11535 -1.22497,-0.11535 l -1.6095,0 0,2.43347 z m 0,3.71887 2.005,0 q 0.51636,0 0.7251,-0.0384 0.36804,-0.0659 0.61524,-0.21973 0.24719,-0.15381 0.40649,-0.44494 0.1593,-0.29663 0.1593,-0.68116 0,-0.45043 -0.23071,-0.78002 -0.23071,-0.33509 -0.6427,-0.46692 -0.4065,-0.13733 -1.17554,-0.13733 l -1.86218,0 0,2.76855 z" />
      <path
         id="path4162"
         style="font-style:normal;font-variant:normal;font-weight:normal;font-stretch:normal;font-size:11.25px;font-family:Arial;-inkscape-font-specification:Arial;text-align:center;text-anchor:middle;fill:#725034;fill-opacity:1"
         d="m 326.45288,140.57672 0,-8.05298 5.82275,0 0,0.95032 -4.75708,0 0,2.46643 4.45496,0 0,0.94482 -4.45496,0 0,2.74109 4.94385,0 0,0.95032 -6.00952,0 z" />
      <path
         id="path4164"
         style="font-style:normal;font-variant:normal;font-weight:normal;font-stretch:normal;font-size:11.25px;font-family:Arial;-inkscape-font-specification:Arial;text-align:center;text-anchor:middle;fill:#725034;fill-opacity:1"
         d="m 339.69141,137.75323 1.06567,0.26917 q -0.33508,1.31286 -1.2085,2.005 -0.86792,0.68665 -2.12585,0.68665 -1.30188,0 -2.12036,-0.52735 -0.81299,-0.53283 -1.24146,-1.53808 -0.42297,-1.00525 -0.42297,-2.15881 0,-1.25794 0.4779,-2.19178 0.4834,-0.93933 1.3678,-1.42273 0.8899,-0.48889 1.95557,-0.48889 1.2085,0 2.03247,0.61524 0.82397,0.61523 1.14807,1.73034 l -1.04919,0.2472 q -0.28015,-0.87891 -0.81299,-1.27991 -0.53284,-0.401 -1.34033,-0.401 -0.92835,0 -1.55457,0.44494 -0.62073,0.44495 -0.87341,1.19751 -0.25269,0.74707 -0.25269,1.54358 0,1.02722 0.29663,1.79627 0.30213,0.76355 0.93384,1.14257 0.63171,0.37903 1.3678,0.37903 0.89538,0 1.51611,-0.51635 0.62073,-0.51636 0.84046,-1.5326 z" />
      <path
         id="path4166"
         style="font-style:normal;font-variant:normal;font-weight:normal;font-stretch:normal;font-size:11.25px;font-family:Arial;-inkscape-font-specification:Arial;text-align:center;text-anchor:middle;fill:#725034;fill-opacity:1"
         d="m 341.19104,140.57672 3.09265,-8.05298 1.14807,0 3.2959,8.05298 -1.21399,0 -0.93933,-2.43897 -3.36731,0 -0.8844,2.43897 -1.13159,0 z m 2.32361,-3.30689 2.7301,0 -0.84045,-2.23022 q -0.38452,-1.01624 -0.57129,-1.66992 -0.15381,0.77453 -0.43396,1.53808 l -0.8844,2.36206 z" />
      <path
         id="path4168"
         style="font-style:normal;font-variant:normal;font-weight:normal;font-stretch:normal;font-size:11.25px;font-family:Arial;-inkscape-font-specification:Arial;text-align:center;text-anchor:middle;fill:#725034;fill-opacity:1"
         d="m 353.12219,141.6369 q 0,0.47791 -0.12085,0.76904 -0.12085,0.29663 -0.34057,0.55481 l -0.6427,0 q 0.24719,-0.26367 0.37902,-0.49988 0.13733,-0.2362 0.13733,-0.48889 l -0.48339,0 0,-0.85693 1.07116,0 0,0.52185 z m 2.58728,-3.19702 q 0,0.48889 -0.19226,0.90088 -0.18677,0.41198 -0.58227,0.71411 -0.39551,0.29663 -0.99976,0.46692 -0.59875,0.16479 -1.42273,0.16479 -1.4447,0 -2.2522,-0.50537 -0.80749,-0.50537 -1.02722,-1.46118 l 1.01624,-0.20325 q 0.0769,0.30213 0.2362,0.54932 0.15931,0.24719 0.42847,0.42847 0.27466,0.17578 0.67566,0.27465 0.401,0.0989 0.9613,0.0989 0.46692,0 0.85694,-0.0769 0.39001,-0.0824 0.67016,-0.2472 0.28015,-0.16479 0.43396,-0.42297 0.1593,-0.26367 0.1593,-0.62622 0,-0.37903 -0.17578,-0.61523 -0.17028,-0.23621 -0.4834,-0.39002 -0.31311,-0.15381 -0.74707,-0.25818 -0.43396,-0.10437 -0.9613,-0.22522 -0.3241,-0.0714 -0.65369,-0.15381 -0.32409,-0.0879 -0.62622,-0.20324 -0.29663,-0.12085 -0.5603,-0.28015 -0.26367,-0.15931 -0.45593,-0.37903 -0.19226,-0.22522 -0.30213,-0.51636 -0.10986,-0.29663 -0.10986,-0.68115 0,-0.54932 0.21973,-0.93933 0.22522,-0.39551 0.62073,-0.6482 0.3955,-0.25268 0.93383,-0.36804 0.53833,-0.11536 1.16455,-0.11536 0.71961,0 1.23047,0.11536 0.51087,0.10986 0.86243,0.33508 0.35156,0.22522 0.5603,0.56031 0.21424,0.32959 0.34058,0.76904 l -1.03272,0.18127 q -0.0769,-0.28015 -0.22522,-0.49987 -0.14282,-0.21973 -0.37902,-0.36805 -0.23621,-0.14831 -0.57679,-0.22522 -0.33508,-0.0769 -0.79101,-0.0769 -0.53833,0 -0.90637,0.0989 -0.36255,0.0934 -0.58777,0.25818 -0.21973,0.16479 -0.31861,0.39001 -0.0934,0.21973 -0.0934,0.47791 0,0.34607 0.17029,0.57128 0.17578,0.21973 0.47241,0.36805 0.29663,0.14831 0.68665,0.24719 0.39001,0.0989 0.82946,0.19775 0.35706,0.0824 0.70862,0.17029 0.35706,0.0824 0.68115,0.20325 0.3241,0.11535 0.60425,0.27466 0.28565,0.1593 0.49439,0.39001 0.20874,0.23071 0.32409,0.54382 0.12085,0.31311 0.12085,0.73609 z" />
    </g>
  </g>
</svg>
