<?xml version="1.0" encoding="UTF-8" standalone="no"?>
<svg
   xmlns:dc="http://purl.org/dc/elements/1.1/"
   xmlns:cc="http://creativecommons.org/ns#"
   xmlns:rdf="http://www.w3.org/1999/02/22-rdf-syntax-ns#"
   xmlns:svg="http://www.w3.org/2000/svg"
   xmlns="http://www.w3.org/2000/svg"
   version="1.1"
   id="svg2"
   viewBox="0 0 57.584839 8.3331301"
   height="2.3517945mm"
   width="16.25172mm">
  <defs
     id="defs4" />
  <metadata
     id="metadata7">
    <rdf:RDF>
      <cc:Work
         rdf:about="">
        <dc:format>image/svg+xml</dc:format>
        <dc:type
           rdf:resource="http://purl.org/dc/dcmitype/StillImage" />
        <dc:title></dc:title>
      </cc:Work>
    </rdf:RDF>
  </metadata>
  <g
     transform="translate(-269.33095,-102.73806)"
     id="layer1">
    <g
       id="flowRoot4136"
       style="font-style:normal;font-weight:normal;font-size:40px;line-height:125%;font-family:sans-serif;letter-spacing:0px;word-spacing:0px;fill:#000000;fill-opacity:1;stroke:none;stroke-width:1px;stroke-linecap:butt;stroke-linejoin:miter;stroke-opacity:1"
       transform="translate(-38.928571,-29.642857)">
      <path
         id="path4341"
         style="font-style:normal;font-variant:normal;font-weight:normal;font-stretch:normal;font-size:11.25px;font-family:Arial;-inkscape-font-specification:Arial;text-align:center;text-anchor:middle;fill:#725034;fill-opacity:1"
         d="m 308.25952,140.57672 0,-8.05298 3.02124,0 q 0.92285,0 1.47766,0.24719 0.56031,0.2417 0.87342,0.75257 0.3186,0.50537 0.3186,1.06018 0,0.51635 -0.28015,0.97229 -0.28015,0.45593 -0.84595,0.73608 0.73059,0.21423 1.12061,0.73059 0.3955,0.51636 0.3955,1.21948 0,0.5658 -0.2417,1.05469 -0.2362,0.4834 -0.58776,0.74707 -0.35157,0.26367 -0.8844,0.401 -0.52735,0.13184 -1.29639,0.13184 l -3.07068,0 z m 1.06568,-4.66919 1.74133,0 q 0.70862,0 1.01623,-0.0934 0.4065,-0.12085 0.60974,-0.401 0.20875,-0.28016 0.20875,-0.70313 0,-0.401 -0.19227,-0.70312 -0.19226,-0.30762 -0.54931,-0.41749 -0.35706,-0.11535 -1.22498,-0.11535 l -1.60949,0 0,2.43347 z m 0,3.71887 2.005,0 q 0.51636,0 0.7251,-0.0384 0.36804,-0.0659 0.61523,-0.21973 0.24719,-0.15381 0.4065,-0.44494 0.1593,-0.29663 0.1593,-0.68116 0,-0.45043 -0.23071,-0.78002 -0.23072,-0.33509 -0.6427,-0.46692 -0.4065,-0.13733 -1.17554,-0.13733 l -1.86218,0 0,2.76855 z" />
      <path
         id="path4343"
         style="font-style:normal;font-variant:normal;font-weight:normal;font-stretch:normal;font-size:11.25px;font-family:Arial;-inkscape-font-specification:Arial;text-align:center;text-anchor:middle;fill:#725034;fill-opacity:1"
         d="m 315.49402,136.6546 q 0,-2.005 1.07666,-3.1366 1.07666,-1.13708 2.77954,-1.13708 1.11511,0 2.0105,0.53284 0.89538,0.53283 1.3623,1.48864 0.47241,0.95032 0.47241,2.15882 0,1.22497 -0.49438,2.19177 -0.49438,0.9668 -1.40076,1.46667 -0.90637,0.49439 -1.95556,0.49439 -1.13709,0 -2.03247,-0.54932 -0.89539,-0.54931 -1.35682,-1.49963 -0.46142,-0.95032 -0.46142,-2.0105 z m 1.09863,0.0165 q 0,1.45569 0.78003,2.29614 0.78552,0.83496 1.96655,0.83496 1.20301,0 1.97754,-0.84594 0.78003,-0.84595 0.78003,-2.40052 0,-0.98327 -0.33508,-1.71386 -0.32959,-0.73609 -0.97229,-1.13709 -0.63721,-0.40649 -1.43372,-0.40649 -1.13159,0 -1.95007,0.78003 -0.81299,0.77453 -0.81299,2.59277 z" />
      <path
         id="path4345"
         style="font-style:normal;font-variant:normal;font-weight:normal;font-stretch:normal;font-size:11.25px;font-family:Arial;-inkscape-font-specification:Arial;text-align:center;text-anchor:middle;fill:#725034;fill-opacity:1"
         d="m 324.57971,140.57672 0,-8.05298 3.57056,0 q 1.07666,0 1.63696,0.21973 0.5603,0.21423 0.89539,0.76355 0.33508,0.54931 0.33508,1.21399 0,0.85693 -0.55481,1.4447 -0.55481,0.58777 -1.71387,0.74707 0.42298,0.20325 0.6427,0.401 0.46692,0.42847 0.8844,1.07117 l 1.40076,2.19177 -1.34033,0 -1.06568,-1.67542 q -0.46691,-0.72509 -0.76904,-1.10961 -0.30212,-0.38453 -0.54382,-0.53834 -0.23621,-0.1538 -0.4834,-0.21423 -0.18128,-0.0384 -0.59326,-0.0384 l -1.23596,0 0,3.57605 -1.06568,0 z m 1.06568,-4.4989 2.29065,0 q 0.73059,0 1.14257,-0.14832 0.41199,-0.15381 0.62622,-0.4834 0.21424,-0.33508 0.21424,-0.72509 0,-0.57129 -0.41748,-0.93933 -0.41199,-0.36805 -1.30738,-0.36805 l -2.54882,0 0,2.66419 z" />
      <path
         id="path4347"
         style="font-style:normal;font-variant:normal;font-weight:normal;font-stretch:normal;font-size:11.25px;font-family:Arial;-inkscape-font-specification:Arial;text-align:center;text-anchor:middle;fill:#725034;fill-opacity:1"
         d="m 332.72607,140.57672 0,-8.05298 1.06568,0 0,3.30689 4.18579,0 0,-3.30689 1.06567,0 0,8.05298 -1.06567,0 0,-3.79578 -4.18579,0 0,3.79578 -1.06568,0 z" />
      <path
         id="path4349"
         style="font-style:normal;font-variant:normal;font-weight:normal;font-stretch:normal;font-size:11.25px;font-family:Arial;-inkscape-font-specification:Arial;text-align:center;text-anchor:middle;fill:#725034;fill-opacity:1"
         d="m 339.9386,140.57672 3.09265,-8.05298 1.14807,0 3.2959,8.05298 -1.21399,0 -0.93933,-2.43897 -3.36731,0 -0.8844,2.43897 -1.13159,0 z m 2.32361,-3.30689 2.7301,0 -0.84045,-2.23022 q -0.38453,-1.01624 -0.57129,-1.66992 -0.15381,0.77453 -0.43396,1.53808 l -0.8844,2.36206 z" />
      <path
         id="path4351"
         style="font-style:normal;font-variant:normal;font-weight:normal;font-stretch:normal;font-size:11.25px;font-family:Arial;-inkscape-font-specification:Arial;text-align:center;text-anchor:middle;fill:#725034;fill-opacity:1"
         d="m 348.32666,140.57672 0,-8.05298 1.09314,0 4.22974,6.32263 0,-6.32263 1.02172,0 0,8.05298 -1.09314,0 -4.22973,-6.32813 0,6.32813 -1.02173,0 z" />
      <path
         id="path4353"
         style="font-style:normal;font-variant:normal;font-weight:normal;font-stretch:normal;font-size:11.25px;font-family:Arial;-inkscape-font-specification:Arial;text-align:center;text-anchor:middle;fill:#725034;fill-opacity:1"
         d="m 362.21338,137.75323 1.06567,0.26917 q -0.33508,1.31286 -1.20849,2.005 -0.86792,0.68665 -2.12586,0.68665 -1.30188,0 -2.12036,-0.52735 -0.81299,-0.53283 -1.24145,-1.53808 -0.42298,-1.00525 -0.42298,-2.15881 0,-1.25794 0.47791,-2.19178 0.4834,-0.93933 1.3678,-1.42273 0.88989,-0.48889 1.95556,-0.48889 1.2085,0 2.03247,0.61524 0.82398,0.61523 1.14807,1.73034 l -1.04919,0.2472 q -0.28015,-0.87891 -0.81299,-1.27991 -0.53284,-0.401 -1.34033,-0.401 -0.92835,0 -1.55457,0.44494 -0.62072,0.44495 -0.87341,1.19751 -0.25269,0.74707 -0.25269,1.54358 0,1.02722 0.29664,1.79627 0.30212,0.76355 0.93383,1.14257 0.63172,0.37903 1.3678,0.37903 0.89539,0 1.51611,-0.51635 0.62073,-0.51636 0.84046,-1.5326 z" />
      <path
         id="path4355"
         style="font-style:normal;font-variant:normal;font-weight:normal;font-stretch:normal;font-size:11.25px;font-family:Arial;-inkscape-font-specification:Arial;text-align:center;text-anchor:middle;fill:#725034;fill-opacity:1"
         d="m 364.77869,140.57672 0,-8.05298 1.06567,0 0,8.05298 -1.06567,0 z" />
    </g>
  </g>
</svg>
