<?xml version="1.0" encoding="UTF-8" standalone="no"?>
<svg
   xmlns:dc="http://purl.org/dc/elements/1.1/"
   xmlns:cc="http://creativecommons.org/ns#"
   xmlns:rdf="http://www.w3.org/1999/02/22-rdf-syntax-ns#"
   xmlns:svg="http://www.w3.org/2000/svg"
   xmlns="http://www.w3.org/2000/svg"
   version="1.1"
   id="svg2"
   viewBox="0 0 56.112673 8.3276365"
   height="2.350244mm"
   width="15.836243mm">
  <defs
     id="defs4" />
  <metadata
     id="metadata7">
    <rdf:RDF>
      <cc:Work
         rdf:about="">
        <dc:format>image/svg+xml</dc:format>
        <dc:type
           rdf:resource="http://purl.org/dc/dcmitype/StillImage" />
        <dc:title></dc:title>
      </cc:Work>
    </rdf:RDF>
  </metadata>
  <g
     transform="translate(-270.57241,-102.74355)"
     id="layer1">
    <g
       id="flowRoot4136"
       style="font-style:normal;font-weight:normal;font-size:40px;line-height:125%;font-family:sans-serif;letter-spacing:0px;word-spacing:0px;fill:#000000;fill-opacity:1;stroke:none;stroke-width:1px;stroke-linecap:butt;stroke-linejoin:miter;stroke-opacity:1"
       transform="translate(-38.928571,-29.642857)">
      <path
         id="path4405"
         style="font-style:normal;font-variant:normal;font-weight:normal;font-stretch:normal;font-size:11.25px;font-family:Arial;-inkscape-font-specification:Arial;text-align:center;text-anchor:middle;fill:#725034;fill-opacity:1"
         d="m 309.50098,140.57672 0,-8.05298 3.02124,0 q 0.92285,0 1.47766,0.24719 0.5603,0.2417 0.87341,0.75257 0.3186,0.50537 0.3186,1.06018 0,0.51635 -0.28015,0.97229 -0.28015,0.45593 -0.84594,0.73608 0.73059,0.21423 1.1206,0.73059 0.39551,0.51636 0.39551,1.21948 0,0.5658 -0.2417,1.05469 -0.23621,0.4834 -0.58777,0.74707 -0.35156,0.26367 -0.8844,0.401 -0.52734,0.13184 -1.29638,0.13184 l -3.07068,0 z m 1.06567,-4.66919 1.74133,0 q 0.70862,0 1.01624,-0.0934 0.40649,-0.12085 0.60974,-0.401 0.20874,-0.28016 0.20874,-0.70313 0,-0.401 -0.19226,-0.70312 -0.19226,-0.30762 -0.54932,-0.41749 -0.35705,-0.11535 -1.22497,-0.11535 l -1.6095,0 0,2.43347 z m 0,3.71887 2.00501,0 q 0.51635,0 0.72509,-0.0384 0.36804,-0.0659 0.61524,-0.21973 0.24719,-0.15381 0.40649,-0.44494 0.1593,-0.29663 0.1593,-0.68116 0,-0.45043 -0.23071,-0.78002 -0.23071,-0.33509 -0.6427,-0.46692 -0.40649,-0.13733 -1.17554,-0.13733 l -1.86218,0 0,2.76855 z" />
      <path
         id="path4407"
         style="font-style:normal;font-variant:normal;font-weight:normal;font-stretch:normal;font-size:11.25px;font-family:Arial;-inkscape-font-specification:Arial;text-align:center;text-anchor:middle;fill:#725034;fill-opacity:1"
         d="m 322.34399,132.52374 1.06568,0 0,4.65271 q 0,1.21399 -0.27466,1.9281 -0.27466,0.71411 -0.99426,1.16455 -0.71411,0.44495 -1.87867,0.44495 -1.13159,0 -1.85119,-0.39002 -0.71961,-0.39001 -1.02722,-1.12609 -0.30762,-0.74158 -0.30762,-2.02149 l 0,-4.65271 1.06567,0 0,4.64722 q 0,1.04919 0.19226,1.54907 0.19776,0.49438 0.67017,0.76355 0.47791,0.26916 1.16455,0.26916 1.17554,0 1.67542,-0.53283 0.49987,-0.53284 0.49987,-2.04895 l 0,-4.64722 z" />
      <path
         id="path4409"
         style="font-style:normal;font-variant:normal;font-weight:normal;font-stretch:normal;font-size:11.25px;font-family:Arial;-inkscape-font-specification:Arial;text-align:center;text-anchor:middle;fill:#725034;fill-opacity:1"
         d="m 325.14551,140.57672 0,-8.05298 1.06567,0 0,7.10266 3.96607,0 0,0.95032 -5.03174,0 z" />
      <path
         id="path4411"
         style="font-style:normal;font-variant:normal;font-weight:normal;font-stretch:normal;font-size:11.25px;font-family:Arial;-inkscape-font-specification:Arial;text-align:center;text-anchor:middle;fill:#725034;fill-opacity:1"
         d="m 335.21997,137.41815 0,-0.94482 3.41126,-0.006 0,2.98828 q -0.78553,0.62622 -1.62049,0.94483 -0.83496,0.31311 -1.71387,0.31311 -1.18652,0 -2.15881,-0.50537 -0.9668,-0.51087 -1.46118,-1.47217 -0.49438,-0.9613 -0.49438,-2.14783 0,-1.17553 0.48889,-2.19177 0.49438,-1.02173 1.41723,-1.51611 0.92285,-0.49439 2.12586,-0.49439 0.87341,0 1.57654,0.28565 0.70861,0.28015 1.10961,0.78552 0.40101,0.50537 0.60975,1.31836 l -0.96131,0.26367 q -0.18127,-0.61523 -0.45044,-0.9668 -0.26916,-0.35156 -0.76904,-0.5603 -0.49988,-0.21423 -1.10962,-0.21423 -0.73059,0 -1.26343,0.22522 -0.53283,0.21972 -0.86242,0.58227 -0.3241,0.36255 -0.50537,0.79651 -0.30762,0.74707 -0.30762,1.62048 0,1.07666 0.36804,1.80176 0.37354,0.7251 1.08215,1.07666 0.70862,0.35156 1.50513,0.35156 0.69214,0 1.35132,-0.26367 0.65918,-0.26916 0.99975,-0.57129 l 0,-1.49963 -2.36755,0 z" />
      <path
         id="path4413"
         style="font-style:normal;font-variant:normal;font-weight:normal;font-stretch:normal;font-size:11.25px;font-family:Arial;-inkscape-font-specification:Arial;text-align:center;text-anchor:middle;fill:#725034;fill-opacity:1"
         d="m 339.31238,140.57672 3.09265,-8.05298 1.14807,0 3.2959,8.05298 -1.21399,0 -0.93933,-2.43897 -3.36731,0 -0.8844,2.43897 -1.13159,0 z m 2.32361,-3.30689 2.7301,0 -0.84046,-2.23022 q -0.38452,-1.01624 -0.57128,-1.66992 -0.15381,0.77453 -0.43396,1.53808 l -0.8844,2.36206 z" />
      <path
         id="path4415"
         style="font-style:normal;font-variant:normal;font-weight:normal;font-stretch:normal;font-size:11.25px;font-family:Arial;-inkscape-font-specification:Arial;text-align:center;text-anchor:middle;fill:#725034;fill-opacity:1"
         d="m 347.72791,140.57672 0,-8.05298 3.57055,0 q 1.07666,0 1.63696,0.21973 0.56031,0.21423 0.89539,0.76355 0.33508,0.54931 0.33508,1.21399 0,0.85693 -0.55481,1.4447 -0.55481,0.58777 -1.71386,0.74707 0.42297,0.20325 0.6427,0.401 0.46692,0.42847 0.8844,1.07117 l 1.40075,2.19177 -1.34033,0 -1.06567,-1.67542 q -0.46692,-0.72509 -0.76905,-1.10961 -0.30212,-0.38453 -0.54382,-0.53834 -0.2362,-0.1538 -0.4834,-0.21423 -0.18127,-0.0384 -0.59326,-0.0384 l -1.23596,0 0,3.57605 -1.06567,0 z m 1.06567,-4.4989 2.29065,0 q 0.73059,0 1.14258,-0.14832 0.41198,-0.15381 0.62622,-0.4834 0.21423,-0.33508 0.21423,-0.72509 0,-0.57129 -0.41748,-0.93933 -0.41199,-0.36805 -1.30737,-0.36805 l -2.54883,0 0,2.66419 z" />
      <path
         id="path4417"
         style="font-style:normal;font-variant:normal;font-weight:normal;font-stretch:normal;font-size:11.25px;font-family:Arial;-inkscape-font-specification:Arial;text-align:center;text-anchor:middle;fill:#725034;fill-opacity:1"
         d="m 356.02258,140.57672 0,-8.05298 1.06568,0 0,8.05298 -1.06568,0 z" />
      <path
         id="path4419"
         style="font-style:normal;font-variant:normal;font-weight:normal;font-stretch:normal;font-size:11.25px;font-family:Arial;-inkscape-font-specification:Arial;text-align:center;text-anchor:middle;fill:#725034;fill-opacity:1"
         d="m 358.07703,140.57672 3.09265,-8.05298 1.14807,0 3.2959,8.05298 -1.21399,0 -0.93933,-2.43897 -3.36731,0 -0.8844,2.43897 -1.13159,0 z m 2.3236,-3.30689 2.73011,0 -0.84046,-2.23022 q -0.38452,-1.01624 -0.57129,-1.66992 -0.1538,0.77453 -0.43396,1.53808 l -0.8844,2.36206 z" />
    </g>
  </g>
</svg>
