<?xml version="1.0" encoding="UTF-8" standalone="no"?>
<svg
   xmlns:dc="http://purl.org/dc/elements/1.1/"
   xmlns:cc="http://creativecommons.org/ns#"
   xmlns:rdf="http://www.w3.org/1999/02/22-rdf-syntax-ns#"
   xmlns:svg="http://www.w3.org/2000/svg"
   xmlns="http://www.w3.org/2000/svg"
   version="1.1"
   id="svg2"
   viewBox="0 0 59.232788 10.107422"
   height="2.8525391mm"
   width="16.716808mm">
  <defs
     id="defs4" />
  <metadata
     id="metadata7">
    <rdf:RDF>
      <cc:Work
         rdf:about="">
        <dc:format>image/svg+xml</dc:format>
        <dc:type
           rdf:resource="http://purl.org/dc/dcmitype/StillImage" />
        <dc:title></dc:title>
      </cc:Work>
    </rdf:RDF>
  </metadata>
  <g
     transform="translate(-269.01235,-100.96377)"
     id="layer1">
    <g
       id="flowRoot4136"
       style="font-style:normal;font-weight:normal;font-size:40px;line-height:125%;font-family:sans-serif;letter-spacing:0px;word-spacing:0px;fill:#000000;fill-opacity:1;stroke:none;stroke-width:1px;stroke-linecap:butt;stroke-linejoin:miter;stroke-opacity:1"
       transform="translate(-38.928571,-29.642857)">
      <path
         id="path4469"
         style="font-style:normal;font-variant:normal;font-weight:normal;font-stretch:normal;font-size:11.25px;font-family:Arial;-inkscape-font-specification:Arial;text-align:center;text-anchor:middle;fill:#725034;fill-opacity:1"
         d="m 307.94092,140.57672 0,-8.05298 3.02124,0 q 0.92285,0 1.47766,0.24719 0.5603,0.2417 0.87341,0.75257 0.31861,0.50537 0.31861,1.06018 0,0.51635 -0.28016,0.97229 -0.28015,0.45593 -0.84594,0.73608 0.73059,0.21423 1.1206,0.73059 0.39551,0.51636 0.39551,1.21948 0,0.5658 -0.2417,1.05469 -0.2362,0.4834 -0.58777,0.74707 -0.35156,0.26367 -0.8844,0.401 -0.52734,0.13184 -1.29638,0.13184 l -3.07068,0 z m 1.06567,-4.66919 1.74133,0 q 0.70862,0 1.01624,-0.0934 0.40649,-0.12085 0.60974,-0.401 0.20874,-0.28016 0.20874,-0.70313 0,-0.401 -0.19226,-0.70312 -0.19226,-0.30762 -0.54932,-0.41749 -0.35705,-0.11535 -1.22497,-0.11535 l -1.6095,0 0,2.43347 z m 0,3.71887 2.00501,0 q 0.51635,0 0.72509,-0.0384 0.36805,-0.0659 0.61524,-0.21973 0.24719,-0.15381 0.40649,-0.44494 0.1593,-0.29663 0.1593,-0.68116 0,-0.45043 -0.23071,-0.78002 -0.23071,-0.33509 -0.6427,-0.46692 -0.40649,-0.13733 -1.17554,-0.13733 l -1.86218,0 0,2.76855 z" />
      <path
         id="path4471"
         style="font-style:normal;font-variant:normal;font-weight:normal;font-stretch:normal;font-size:11.25px;font-family:Arial;-inkscape-font-specification:Arial;text-align:center;text-anchor:middle;fill:#725034;fill-opacity:1"
         d="m 320.78394,132.52374 1.06567,0 0,4.65271 q 0,1.21399 -0.27466,1.9281 -0.27466,0.71411 -0.99426,1.16455 -0.71411,0.44495 -1.87866,0.44495 -1.1316,0 -1.8512,-0.39002 -0.7196,-0.39001 -1.02722,-1.12609 -0.30762,-0.74158 -0.30762,-2.02149 l 0,-4.65271 1.06568,0 0,4.64722 q 0,1.04919 0.19226,1.54907 0.19775,0.49438 0.67016,0.76355 0.47791,0.26916 1.16455,0.26916 1.17554,0 1.67542,-0.53283 0.49988,-0.53284 0.49988,-2.04895 l 0,-4.64722 z" />
      <path
         id="path4473"
         style="font-style:normal;font-variant:normal;font-weight:normal;font-stretch:normal;font-size:11.25px;font-family:Arial;-inkscape-font-specification:Arial;text-align:center;text-anchor:middle;fill:#725034;fill-opacity:1"
         d="m 323.61841,140.57672 0,-8.05298 1.09314,0 4.22973,6.32263 0,-6.32263 1.02173,0 0,8.05298 -1.09314,0 -4.22973,-6.32813 0,6.32813 -1.02173,0 z" />
      <path
         id="path4475"
         style="font-style:normal;font-variant:normal;font-weight:normal;font-stretch:normal;font-size:11.25px;font-family:Arial;-inkscape-font-specification:Arial;text-align:center;text-anchor:middle;fill:#725034;fill-opacity:1"
         d="m 330.87488,140.57672 3.09265,-8.05298 1.14807,0 3.2959,8.05298 -1.21399,0 -0.93933,-2.43897 -3.36731,0 -0.8844,2.43897 -1.13159,0 z m 2.32361,-3.30689 2.7301,0 -0.84046,-2.23022 q -0.38452,-1.01624 -0.57128,-1.66992 -0.15381,0.77453 -0.43396,1.53808 l -0.8844,2.36206 z m 2.37304,-6.6632 0.67566,0 q -0.0824,0.68664 -0.50537,1.05468 -0.41748,0.36805 -1.11511,0.36805 -0.70313,0 -1.1261,-0.36255 -0.41748,-0.36804 -0.49988,-1.06018 l 0.67566,0 q 0.0769,0.37353 0.30213,0.5603 0.23071,0.18127 0.61523,0.18127 0.44495,0 0.67017,-0.17578 0.23071,-0.18127 0.30761,-0.56579 z" />
      <path
         id="path4477"
         style="font-style:normal;font-variant:normal;font-weight:normal;font-stretch:normal;font-size:11.25px;font-family:Arial;-inkscape-font-specification:Arial;text-align:center;text-anchor:middle;fill:#725034;fill-opacity:1"
         d="m 341.75134,140.57672 0,-0.98877 4.12537,-5.15808 q 0.43945,-0.54932 0.83496,-0.95581 l -4.49341,0 0,-0.95032 5.76782,0 0,0.95032 -4.52087,5.58655 -0.48889,0.56579 5.1416,0 0,0.95032 -6.36658,0 z" />
      <path
         id="path4479"
         style="font-style:normal;font-variant:normal;font-weight:normal;font-stretch:normal;font-size:11.25px;font-family:Arial;-inkscape-font-specification:Arial;text-align:center;text-anchor:middle;fill:#725034;fill-opacity:1"
         d="m 349.45276,140.57672 0,-8.05298 1.06567,0 0,8.05298 -1.06567,0 z" />
      <path
         id="path4481"
         style="font-style:normal;font-variant:normal;font-weight:normal;font-stretch:normal;font-size:11.25px;font-family:Arial;-inkscape-font-specification:Arial;text-align:center;text-anchor:middle;fill:#725034;fill-opacity:1"
         d="m 357.67603,132.52374 1.06567,0 0,4.65271 q 0,1.21399 -0.27466,1.9281 -0.27466,0.71411 -0.99426,1.16455 -0.71411,0.44495 -1.87866,0.44495 -1.1316,0 -1.8512,-0.39002 -0.7196,-0.39001 -1.02722,-1.12609 -0.30762,-0.74158 -0.30762,-2.02149 l 0,-4.65271 1.06567,0 0,4.64722 q 0,1.04919 0.19227,1.54907 0.19775,0.49438 0.67016,0.76355 0.47791,0.26916 1.16455,0.26916 1.17554,0 1.67542,-0.53283 0.49988,-0.53284 0.49988,-2.04895 l 0,-4.64722 z" />
      <path
         id="path4483"
         style="font-style:normal;font-variant:normal;font-weight:normal;font-stretch:normal;font-size:11.25px;font-family:Arial;-inkscape-font-specification:Arial;text-align:center;text-anchor:middle;fill:#725034;fill-opacity:1"
         d="m 359.63708,140.57672 3.09266,-8.05298 1.14807,0 3.2959,8.05298 -1.21399,0 -0.93933,-2.43897 -3.36731,0 -0.8844,2.43897 -1.1316,0 z m 2.32361,-3.30689 2.73011,0 -0.84046,-2.23022 q -0.38452,-1.01624 -0.57129,-1.66992 -0.15381,0.77453 -0.43396,1.53808 l -0.8844,2.36206 z" />
    </g>
  </g>
</svg>
