<?xml version="1.0" encoding="UTF-8" standalone="no"?>
<svg
   xmlns:dc="http://purl.org/dc/elements/1.1/"
   xmlns:cc="http://creativecommons.org/ns#"
   xmlns:rdf="http://www.w3.org/1999/02/22-rdf-syntax-ns#"
   xmlns:svg="http://www.w3.org/2000/svg"
   xmlns="http://www.w3.org/2000/svg"
   version="1.1"
   id="svg2"
   viewBox="0 0 96.328131 10.222778"
   height="2.8850951mm"
   width="27.185938mm">
  <defs
     id="defs4" />
  <metadata
     id="metadata7">
    <rdf:RDF>
      <cc:Work
         rdf:about="">
        <dc:format>image/svg+xml</dc:format>
        <dc:type
           rdf:resource="http://purl.org/dc/dcmitype/StillImage" />
        <dc:title></dc:title>
      </cc:Work>
    </rdf:RDF>
  </metadata>
  <g
     transform="translate(-250.18178,-100.84841)"
     id="layer1">
    <g
       id="flowRoot4136"
       style="font-style:normal;font-weight:normal;font-size:40px;line-height:125%;font-family:sans-serif;letter-spacing:0px;word-spacing:0px;fill:#000000;fill-opacity:1;stroke:none;stroke-width:1px;stroke-linecap:butt;stroke-linejoin:miter;stroke-opacity:1"
       transform="translate(-38.928571,-29.642857)">
      <path
         id="path4719"
         style="font-style:normal;font-variant:normal;font-weight:normal;font-stretch:normal;font-size:11.25px;font-family:Arial;-inkscape-font-specification:Arial;text-align:center;text-anchor:middle;fill:#725034;fill-opacity:1"
         d="m 289.11035,140.57672 0,-8.05298 2.77405,0 q 0.93933,0 1.43372,0.11536 0.69213,0.1593 1.18103,0.57678 0.6372,0.53833 0.95031,1.37878 0.31861,0.83496 0.31861,1.91162 0,0.91736 -0.21424,1.62598 -0.21423,0.70862 -0.54931,1.17554 -0.33509,0.46142 -0.73609,0.73059 -0.39551,0.26367 -0.9613,0.401 -0.5603,0.13733 -1.29089,0.13733 l -2.90589,0 z m 1.06568,-0.95032 1.71936,0 q 0.7965,0 1.24694,-0.14831 0.45594,-0.14832 0.7251,-0.41748 0.37903,-0.37903 0.58777,-1.01624 0.21423,-0.6427 0.21423,-1.55456 0,-1.26343 -0.41748,-1.93909 -0.41198,-0.68115 -1.00525,-0.91187 -0.42846,-0.16479 -1.37878,-0.16479 l -1.69189,0 0,6.15234 z" />
      <path
         id="path4721"
         style="font-style:normal;font-variant:normal;font-weight:normal;font-stretch:normal;font-size:11.25px;font-family:Arial;-inkscape-font-specification:Arial;text-align:center;text-anchor:middle;fill:#725034;fill-opacity:1"
         d="m 296.35583,140.57672 3.09266,-8.05298 1.14807,0 3.2959,8.05298 -1.21399,0 -0.93933,-2.43897 -3.36731,0 -0.8844,2.43897 -1.1316,0 z m 2.32361,-3.30689 2.73011,0 -0.84046,-2.23022 q -0.38452,-1.01624 -0.57129,-1.66992 -0.15381,0.77453 -0.43396,1.53808 l -0.8844,2.36206 z m 1.34034,-6.17431 -0.62073,0.93384 -1.13159,0 1.18652,-1.53809 1.05469,0 1.23596,1.53809 -1.12061,0 -0.60424,-0.93384 z" />
      <path
         id="path4723"
         style="font-style:normal;font-variant:normal;font-weight:normal;font-stretch:normal;font-size:11.25px;font-family:Arial;-inkscape-font-specification:Arial;text-align:center;text-anchor:middle;fill:#725034;fill-opacity:1"
         d="m 304.72192,140.57672 0,-8.05298 1.60401,0 1.90613,5.70191 q 0.26367,0.7965 0.38452,1.19201 0.13733,-0.43945 0.42846,-1.29089 l 1.9281,-5.60303 1.43372,0 0,8.05298 -1.02722,0 0,-6.74011 -2.34009,6.74011 -0.9613,0 -2.3291,-6.85547 0,6.85547 -1.02723,0 z" />
      <path
         id="path4725"
         style="font-style:normal;font-variant:normal;font-weight:normal;font-stretch:normal;font-size:11.25px;font-family:Arial;-inkscape-font-specification:Arial;text-align:center;text-anchor:middle;fill:#725034;fill-opacity:1"
         d="m 314.09326,140.57672 0,-8.05298 3.02124,0 q 0.92285,0 1.47766,0.24719 0.56031,0.2417 0.87342,0.75257 0.3186,0.50537 0.3186,1.06018 0,0.51635 -0.28015,0.97229 -0.28015,0.45593 -0.84595,0.73608 0.73059,0.21423 1.12061,0.73059 0.3955,0.51636 0.3955,1.21948 0,0.5658 -0.24169,1.05469 -0.23621,0.4834 -0.58777,0.74707 -0.35157,0.26367 -0.8844,0.401 -0.52735,0.13184 -1.29639,0.13184 l -3.07068,0 z m 1.06568,-4.66919 1.74133,0 q 0.70862,0 1.01623,-0.0934 0.4065,-0.12085 0.60975,-0.401 0.20874,-0.28016 0.20874,-0.70313 0,-0.401 -0.19227,-0.70312 -0.19226,-0.30762 -0.54931,-0.41749 -0.35706,-0.11535 -1.22498,-0.11535 l -1.60949,0 0,2.43347 z m 0,3.71887 2.005,0 q 0.51636,0 0.7251,-0.0384 0.36804,-0.0659 0.61523,-0.21973 0.24719,-0.15381 0.4065,-0.44494 0.1593,-0.29663 0.1593,-0.68116 0,-0.45043 -0.23071,-0.78002 -0.23072,-0.33509 -0.6427,-0.46692 -0.4065,-0.13733 -1.17554,-0.13733 l -1.86218,0 0,2.76855 z" />
      <path
         id="path4727"
         style="font-style:normal;font-variant:normal;font-weight:normal;font-stretch:normal;font-size:11.25px;font-family:Arial;-inkscape-font-specification:Arial;text-align:center;text-anchor:middle;fill:#725034;fill-opacity:1"
         d="m 326.93628,132.52374 1.06567,0 0,4.65271 q 0,1.21399 -0.27466,1.9281 -0.27465,0.71411 -0.99426,1.16455 -0.71411,0.44495 -1.87866,0.44495 -1.13159,0 -1.8512,-0.39002 -0.7196,-0.39001 -1.02722,-1.12609 -0.30762,-0.74158 -0.30762,-2.02149 l 0,-4.65271 1.06568,0 0,4.64722 q 0,1.04919 0.19226,1.54907 0.19775,0.49438 0.67017,0.76355 0.4779,0.26916 1.16455,0.26916 1.17553,0 1.67541,-0.53283 0.49988,-0.53284 0.49988,-2.04895 l 0,-4.64722 z" />
      <path
         id="path4729"
         style="font-style:normal;font-variant:normal;font-weight:normal;font-stretch:normal;font-size:11.25px;font-family:Arial;-inkscape-font-specification:Arial;text-align:center;text-anchor:middle;fill:#725034;fill-opacity:1"
         d="m 329.73779,140.57672 0,-8.05298 1.06568,0 0,7.10266 3.96606,0 0,0.95032 -5.03174,0 z" />
      <path
         id="path4731"
         style="font-style:normal;font-variant:normal;font-weight:normal;font-stretch:normal;font-size:11.25px;font-family:Arial;-inkscape-font-specification:Arial;text-align:center;text-anchor:middle;fill:#725034;fill-opacity:1"
         d="m 338.78503,140.57672 0,-8.05298 3.57056,0 q 1.07666,0 1.63696,0.21973 0.56031,0.21423 0.89539,0.76355 0.33508,0.54931 0.33508,1.21399 0,0.85693 -0.55481,1.4447 -0.55481,0.58777 -1.71386,0.74707 0.42297,0.20325 0.6427,0.401 0.46691,0.42847 0.8844,1.07117 l 1.40075,2.19177 -1.34033,0 -1.06567,-1.67542 q -0.46692,-0.72509 -0.76905,-1.10961 -0.30212,-0.38453 -0.54382,-0.53834 -0.23621,-0.1538 -0.4834,-0.21423 -0.18127,-0.0384 -0.59326,-0.0384 l -1.23596,0 0,3.57605 -1.06568,0 z m 1.06568,-4.4989 2.29065,0 q 0.73059,0 1.14258,-0.14832 0.41198,-0.15381 0.62622,-0.4834 0.21423,-0.33508 0.21423,-0.72509 0,-0.57129 -0.41748,-0.93933 -0.41199,-0.36805 -1.30737,-0.36805 l -2.54883,0 0,2.66419 z" />
      <path
         id="path4733"
         style="font-style:normal;font-variant:normal;font-weight:normal;font-stretch:normal;font-size:11.25px;font-family:Arial;-inkscape-font-specification:Arial;text-align:center;text-anchor:middle;fill:#725034;fill-opacity:1"
         d="m 346.57434,136.6546 q 0,-2.005 1.07666,-3.1366 1.07666,-1.13708 2.77954,-1.13708 1.11511,0 2.0105,0.53284 0.89539,0.53283 1.3623,1.48864 0.47242,0.95032 0.47242,2.15882 0,1.22497 -0.49439,2.19177 -0.49438,0.9668 -1.40075,1.46667 -0.90638,0.49439 -1.95557,0.49439 -1.13709,0 -2.03247,-0.54932 -0.89539,-0.54931 -1.35681,-1.49963 -0.46143,-0.95032 -0.46143,-2.0105 z m 1.09863,0.0165 q 0,1.45569 0.78003,2.29614 0.78553,0.83496 1.96656,0.83496 1.203,0 1.97753,-0.84594 0.78003,-0.84595 0.78003,-2.40052 0,-0.98327 -0.33508,-1.71386 -0.32959,-0.73609 -0.97229,-1.13709 -0.63721,-0.40649 -1.43371,-0.40649 -1.1316,0 -1.95008,0.78003 -0.81299,0.77453 -0.81299,2.59277 z" />
      <path
         id="path4735"
         style="font-style:normal;font-variant:normal;font-weight:normal;font-stretch:normal;font-size:11.25px;font-family:Arial;-inkscape-font-specification:Arial;text-align:center;text-anchor:middle;fill:#725034;fill-opacity:1"
         d="m 357.6925,140.57672 0,-7.10266 -2.65319,0 0,-0.95032 6.38305,0 0,0.95032 -2.66418,0 0,7.10266 -1.06568,0 z" />
      <path
         id="path4737"
         style="font-style:normal;font-variant:normal;font-weight:normal;font-stretch:normal;font-size:11.25px;font-family:Arial;-inkscape-font-specification:Arial;text-align:center;text-anchor:middle;fill:#725034;fill-opacity:1"
         d="m 367.80542,132.52374 1.06567,0 0,4.65271 q 0,1.21399 -0.27465,1.9281 -0.27466,0.71411 -0.99427,1.16455 -0.71411,0.44495 -1.87866,0.44495 -1.13159,0 -1.8512,-0.39002 -0.7196,-0.39001 -1.02722,-1.12609 -0.30761,-0.74158 -0.30761,-2.02149 l 0,-4.65271 1.06567,0 0,4.64722 q 0,1.04919 0.19226,1.54907 0.19775,0.49438 0.67017,0.76355 0.4779,0.26916 1.16455,0.26916 1.17553,0 1.67541,-0.53283 0.49988,-0.53284 0.49988,-2.04895 l 0,-4.64722 z" />
      <path
         id="path4739"
         style="font-style:normal;font-variant:normal;font-weight:normal;font-stretch:normal;font-size:11.25px;font-family:Arial;-inkscape-font-specification:Arial;text-align:center;text-anchor:middle;fill:#725034;fill-opacity:1"
         d="m 370.63989,140.57672 0,-8.05298 1.09314,0 4.22974,6.32263 0,-6.32263 1.02173,0 0,8.05298 -1.09314,0 -4.22974,-6.32813 0,6.32813 -1.02173,0 z" />
      <path
         id="path4741"
         style="font-style:normal;font-variant:normal;font-weight:normal;font-stretch:normal;font-size:11.25px;font-family:Arial;-inkscape-font-specification:Arial;text-align:center;text-anchor:middle;fill:#725034;fill-opacity:1"
         d="m 378.78076,140.57672 0,-8.05298 2.77405,0 q 0.93933,0 1.43372,0.11536 0.69213,0.1593 1.18103,0.57678 0.6372,0.53833 0.95031,1.37878 0.31861,0.83496 0.31861,1.91162 0,0.91736 -0.21424,1.62598 -0.21423,0.70862 -0.54931,1.17554 -0.33509,0.46142 -0.73609,0.73059 -0.39551,0.26367 -0.9613,0.401 -0.5603,0.13733 -1.29089,0.13733 l -2.90589,0 z m 1.06568,-0.95032 1.71936,0 q 0.7965,0 1.24694,-0.14831 0.45594,-0.14832 0.7251,-0.41748 0.37903,-0.37903 0.58777,-1.01624 0.21423,-0.6427 0.21423,-1.55456 0,-1.26343 -0.41748,-1.93909 -0.41198,-0.68115 -1.00525,-0.91187 -0.42846,-0.16479 -1.37878,-0.16479 l -1.69189,0 0,6.15234 z" />
    </g>
  </g>
</svg>
