<?xml version="1.0" encoding="UTF-8" standalone="no"?>
<svg
   xmlns:dc="http://purl.org/dc/elements/1.1/"
   xmlns:cc="http://creativecommons.org/ns#"
   xmlns:rdf="http://www.w3.org/1999/02/22-rdf-syntax-ns#"
   xmlns:svg="http://www.w3.org/2000/svg"
   xmlns="http://www.w3.org/2000/svg"
   version="1.1"
   id="svg2"
   viewBox="0 0 36.375733 10.107422"
   height="2.8525391mm"
   width="10.26604mm">
  <defs
     id="defs4" />
  <metadata
     id="metadata7">
    <rdf:RDF>
      <cc:Work
         rdf:about="">
        <dc:format>image/svg+xml</dc:format>
        <dc:type
           rdf:resource="http://purl.org/dc/dcmitype/StillImage" />
        <dc:title></dc:title>
      </cc:Work>
    </rdf:RDF>
  </metadata>
  <g
     transform="translate(-277.59429,-110.30768)"
     id="layer1">
    <g
       id="flowRoot4136"
       style="font-style:normal;font-weight:normal;font-size:40px;line-height:125%;font-family:sans-serif;letter-spacing:0px;word-spacing:0px;fill:#000000;fill-opacity:1;stroke:none;stroke-width:1px;stroke-linecap:butt;stroke-linejoin:miter;stroke-opacity:1"
       transform="translate(-41.70649,-20.298946)">
      <path
         id="path5124"
         style="font-style:normal;font-variant:normal;font-weight:normal;font-stretch:normal;font-size:11.25px;font-family:Arial;-inkscape-font-specification:Arial;text-align:center;text-anchor:middle;fill:#725034;fill-opacity:1"
         d="m 319.30078,140.57672 0,-8.05298 5.43274,0 0,0.95032 -4.36706,0 0,2.49389 3.77929,0 0,0.95032 -3.77929,0 0,3.65845 -1.06568,0 z" />
      <path
         id="path5126"
         style="font-style:normal;font-variant:normal;font-weight:normal;font-stretch:normal;font-size:11.25px;font-family:Arial;-inkscape-font-specification:Arial;text-align:center;text-anchor:middle;fill:#725034;fill-opacity:1"
         d="m 325.23889,140.57672 3.09265,-8.05298 1.14807,0 3.2959,8.05298 -1.21399,0 -0.93933,-2.43897 -3.36731,0 -0.8844,2.43897 -1.13159,0 z m 2.32361,-3.30689 2.7301,0 -0.84045,-2.23022 q -0.38452,-1.01624 -0.57129,-1.66992 -0.15381,0.77453 -0.43396,1.53808 l -0.8844,2.36206 z m 2.37305,-6.6632 0.67566,0 q -0.0824,0.68664 -0.50538,1.05468 -0.41748,0.36805 -1.11511,0.36805 -0.70312,0 -1.1261,-0.36255 -0.41748,-0.36804 -0.49987,-1.06018 l 0.67566,0 q 0.0769,0.37353 0.30212,0.5603 0.23071,0.18127 0.61523,0.18127 0.44495,0 0.67017,-0.17578 0.23071,-0.18127 0.30762,-0.56579 z" />
      <path
         id="path5128"
         style="font-style:normal;font-variant:normal;font-weight:normal;font-stretch:normal;font-size:11.25px;font-family:Arial;-inkscape-font-specification:Arial;text-align:center;text-anchor:middle;fill:#725034;fill-opacity:1"
         d="m 337.40625,137.41815 0,-0.94482 3.41125,-0.006 0,2.98828 q -0.78552,0.62622 -1.62048,0.94483 -0.83496,0.31311 -1.71387,0.31311 -1.18652,0 -2.15881,-0.50537 -0.9668,-0.51087 -1.46118,-1.47217 -0.49439,-0.9613 -0.49439,-2.14783 0,-1.17553 0.4889,-2.19177 0.49438,-1.02173 1.41723,-1.51611 0.92285,-0.49439 2.12586,-0.49439 0.87341,0 1.57653,0.28565 0.70862,0.28015 1.10962,0.78552 0.40101,0.50537 0.60975,1.31836 l -0.96131,0.26367 q -0.18127,-0.61523 -0.45044,-0.9668 -0.26916,-0.35156 -0.76904,-0.5603 -0.49988,-0.21423 -1.10962,-0.21423 -0.73059,0 -1.26343,0.22522 -0.53283,0.21972 -0.86242,0.58227 -0.3241,0.36255 -0.50538,0.79651 -0.30761,0.74707 -0.30761,1.62048 0,1.07666 0.36804,1.80176 0.37353,0.7251 1.08215,1.07666 0.70862,0.35156 1.50513,0.35156 0.69214,0 1.35132,-0.26367 0.65918,-0.26916 0.99975,-0.57129 l 0,-1.49963 -2.36755,0 z" />
      <path
         id="path5130"
         style="font-style:normal;font-variant:normal;font-weight:normal;font-stretch:normal;font-size:11.25px;font-family:Arial;-inkscape-font-specification:Arial;text-align:center;text-anchor:middle;fill:#725034;fill-opacity:1"
         d="m 342.40503,140.57672 0,-8.05298 5.82275,0 0,0.95032 -4.75708,0 0,2.46643 4.45496,0 0,0.94482 -4.45496,0 0,2.74109 4.94385,0 0,0.95032 -6.00952,0 z" />
      <path
         id="path5132"
         style="font-style:normal;font-variant:normal;font-weight:normal;font-stretch:normal;font-size:11.25px;font-family:Arial;-inkscape-font-specification:Arial;text-align:center;text-anchor:middle;fill:#725034;fill-opacity:1"
         d="m 351.94666,140.57672 0,-7.10266 -2.6532,0 0,-0.95032 6.38305,0 0,0.95032 -2.66418,0 0,7.10266 -1.06567,0 z" />
    </g>
  </g>
</svg>
