<?xml version="1.0" encoding="UTF-8" standalone="no"?>
<svg
   xmlns:dc="http://purl.org/dc/elements/1.1/"
   xmlns:cc="http://creativecommons.org/ns#"
   xmlns:rdf="http://www.w3.org/1999/02/22-rdf-syntax-ns#"
   xmlns:svg="http://www.w3.org/2000/svg"
   xmlns="http://www.w3.org/2000/svg"
   version="1.1"
   id="svg2"
   viewBox="0 0 75.39368 8.3331301"
   height="2.3517945mm"
   width="21.277771mm">
  <defs
     id="defs4" />
  <metadata
     id="metadata7">
    <rdf:RDF>
      <cc:Work
         rdf:about="">
        <dc:format>image/svg+xml</dc:format>
        <dc:type
           rdf:resource="http://purl.org/dc/dcmitype/StillImage" />
        <dc:title></dc:title>
      </cc:Work>
    </rdf:RDF>
  </metadata>
  <g
     transform="translate(-257.58269,-112.08197)"
     id="layer1">
    <g
       id="flowRoot4136"
       style="font-style:normal;font-weight:normal;font-size:40px;line-height:125%;font-family:sans-serif;letter-spacing:0px;word-spacing:0px;fill:#000000;fill-opacity:1;stroke:none;stroke-width:1px;stroke-linecap:butt;stroke-linejoin:miter;stroke-opacity:1"
       transform="translate(-41.70649,-20.298946)">
      <path
         id="path5378"
         style="font-style:normal;font-variant:normal;font-weight:normal;font-stretch:normal;font-size:11.25px;font-family:Arial;-inkscape-font-specification:Arial;text-align:center;text-anchor:middle;fill:#725034;fill-opacity:1"
         d="m 303.32666,137.41815 0,-0.94482 3.41126,-0.006 0,2.98828 q -0.78553,0.62622 -1.62049,0.94483 -0.83496,0.31311 -1.71387,0.31311 -1.18652,0 -2.15881,-0.50537 -0.9668,-0.51087 -1.46118,-1.47217 -0.49439,-0.9613 -0.49439,-2.14783 0,-1.17553 0.4889,-2.19177 0.49438,-1.02173 1.41723,-1.51611 0.92285,-0.49439 2.12586,-0.49439 0.87341,0 1.57654,0.28565 0.70861,0.28015 1.10961,0.78552 0.40101,0.50537 0.60975,1.31836 l -0.96131,0.26367 q -0.18127,-0.61523 -0.45044,-0.9668 -0.26916,-0.35156 -0.76904,-0.5603 -0.49988,-0.21423 -1.10962,-0.21423 -0.73059,0 -1.26343,0.22522 -0.53283,0.21972 -0.86242,0.58227 -0.3241,0.36255 -0.50538,0.79651 -0.30761,0.74707 -0.30761,1.62048 0,1.07666 0.36804,1.80176 0.37353,0.7251 1.08215,1.07666 0.70862,0.35156 1.50513,0.35156 0.69214,0 1.35132,-0.26367 0.65918,-0.26916 0.99975,-0.57129 l 0,-1.49963 -2.36755,0 z" />
      <path
         id="path5380"
         style="font-style:normal;font-variant:normal;font-weight:normal;font-stretch:normal;font-size:11.25px;font-family:Arial;-inkscape-font-specification:Arial;text-align:center;text-anchor:middle;fill:#725034;fill-opacity:1"
         d="m 308.31995,140.57672 0,-8.05298 3.57055,0 q 1.07666,0 1.63697,0.21973 0.5603,0.21423 0.89538,0.76355 0.33508,0.54931 0.33508,1.21399 0,0.85693 -0.55481,1.4447 -0.5548,0.58777 -1.71386,0.74707 0.42297,0.20325 0.6427,0.401 0.46692,0.42847 0.8844,1.07117 l 1.40075,2.19177 -1.34033,0 -1.06567,-1.67542 q -0.46692,-0.72509 -0.76904,-1.10961 -0.30213,-0.38453 -0.54383,-0.53834 -0.2362,-0.1538 -0.4834,-0.21423 -0.18127,-0.0384 -0.59326,-0.0384 l -1.23596,0 0,3.57605 -1.06567,0 z m 1.06567,-4.4989 2.29065,0 q 0.73059,0 1.14258,-0.14832 0.41198,-0.15381 0.62622,-0.4834 0.21423,-0.33508 0.21423,-0.72509 0,-0.57129 -0.41748,-0.93933 -0.41199,-0.36805 -1.30737,-0.36805 l -2.54883,0 0,2.66419 z" />
      <path
         id="path5382"
         style="font-style:normal;font-variant:normal;font-weight:normal;font-stretch:normal;font-size:11.25px;font-family:Arial;-inkscape-font-specification:Arial;text-align:center;text-anchor:middle;fill:#725034;fill-opacity:1"
         d="m 316.61462,140.57672 0,-8.05298 1.06568,0 0,8.05298 -1.06568,0 z" />
      <path
         id="path5384"
         style="font-style:normal;font-variant:normal;font-weight:normal;font-stretch:normal;font-size:11.25px;font-family:Arial;-inkscape-font-specification:Arial;text-align:center;text-anchor:middle;fill:#725034;fill-opacity:1"
         d="m 323.32178,137.41815 0,-0.94482 3.41125,-0.006 0,2.98828 q -0.78552,0.62622 -1.62048,0.94483 -0.83496,0.31311 -1.71387,0.31311 -1.18652,0 -2.15881,-0.50537 -0.9668,-0.51087 -1.46118,-1.47217 -0.49439,-0.9613 -0.49439,-2.14783 0,-1.17553 0.48889,-2.19177 0.49439,-1.02173 1.41724,-1.51611 0.92285,-0.49439 2.12585,-0.49439 0.87342,0 1.57654,0.28565 0.70862,0.28015 1.10962,0.78552 0.401,0.50537 0.60974,1.31836 l -0.9613,0.26367 q -0.18128,-0.61523 -0.45044,-0.9668 -0.26917,-0.35156 -0.76904,-0.5603 -0.49988,-0.21423 -1.10962,-0.21423 -0.73059,0 -1.26343,0.22522 -0.53284,0.21972 -0.86243,0.58227 -0.32409,0.36255 -0.50537,0.79651 -0.30762,0.74707 -0.30762,1.62048 0,1.07666 0.36805,1.80176 0.37353,0.7251 1.08215,1.07666 0.70862,0.35156 1.50513,0.35156 0.69214,0 1.35132,-0.26367 0.65917,-0.26916 0.99975,-0.57129 l 0,-1.49963 -2.36755,0 z" />
      <path
         id="path5386"
         style="font-style:normal;font-variant:normal;font-weight:normal;font-stretch:normal;font-size:11.25px;font-family:Arial;-inkscape-font-specification:Arial;text-align:center;text-anchor:middle;fill:#725034;fill-opacity:1"
         d="m 327.97449,136.6546 q 0,-2.005 1.07666,-3.1366 1.07666,-1.13708 2.77954,-1.13708 1.11511,0 2.0105,0.53284 0.89538,0.53283 1.3623,1.48864 0.47241,0.95032 0.47241,2.15882 0,1.22497 -0.49438,2.19177 -0.49439,0.9668 -1.40076,1.46667 -0.90637,0.49439 -1.95556,0.49439 -1.13709,0 -2.03248,-0.54932 -0.89538,-0.54931 -1.35681,-1.49963 -0.46142,-0.95032 -0.46142,-2.0105 z m 1.09863,0.0165 q 0,1.45569 0.78003,2.29614 0.78552,0.83496 1.96655,0.83496 1.20301,0 1.97754,-0.84594 0.78003,-0.84595 0.78003,-2.40052 0,-0.98327 -0.33508,-1.71386 -0.32959,-0.73609 -0.97229,-1.13709 -0.63721,-0.40649 -1.43372,-0.40649 -1.13159,0 -1.95007,0.78003 -0.81299,0.77453 -0.81299,2.59277 z" />
      <path
         id="path5388"
         style="font-style:normal;font-variant:normal;font-weight:normal;font-stretch:normal;font-size:11.25px;font-family:Arial;-inkscape-font-specification:Arial;text-align:center;text-anchor:middle;fill:#725034;fill-opacity:1"
         d="m 337.06018,140.57672 0,-8.05298 3.57056,0 q 1.07666,0 1.63696,0.21973 0.5603,0.21423 0.89539,0.76355 0.33508,0.54931 0.33508,1.21399 0,0.85693 -0.55481,1.4447 -0.55481,0.58777 -1.71387,0.74707 0.42298,0.20325 0.6427,0.401 0.46692,0.42847 0.8844,1.07117 l 1.40076,2.19177 -1.34033,0 -1.06568,-1.67542 q -0.46692,-0.72509 -0.76904,-1.10961 -0.30212,-0.38453 -0.54382,-0.53834 -0.23621,-0.1538 -0.4834,-0.21423 -0.18128,-0.0384 -0.59326,-0.0384 l -1.23597,0 0,3.57605 -1.06567,0 z m 1.06567,-4.4989 2.29065,0 q 0.73059,0 1.14258,-0.14832 0.41199,-0.15381 0.62622,-0.4834 0.21424,-0.33508 0.21424,-0.72509 0,-0.57129 -0.41748,-0.93933 -0.41199,-0.36805 -1.30738,-0.36805 l -2.54883,0 0,2.66419 z" />
      <path
         id="path5390"
         style="font-style:normal;font-variant:normal;font-weight:normal;font-stretch:normal;font-size:11.25px;font-family:Arial;-inkscape-font-specification:Arial;text-align:center;text-anchor:middle;fill:#725034;fill-opacity:1"
         d="m 345.19556,140.57672 0,-8.05298 5.82275,0 0,0.95032 -4.75708,0 0,2.46643 4.45496,0 0,0.94482 -4.45496,0 0,2.74109 4.94385,0 0,0.95032 -6.00952,0 z" />
      <path
         id="path5392"
         style="font-style:normal;font-variant:normal;font-weight:normal;font-stretch:normal;font-size:11.25px;font-family:Arial;-inkscape-font-specification:Arial;text-align:center;text-anchor:middle;fill:#725034;fill-opacity:1"
         d="m 352.32568,137.98944 1.00525,-0.0879 q 0.0714,0.60425 0.32959,0.99426 0.26367,0.38452 0.81299,0.62622 0.54932,0.23621 1.23596,0.23621 0.60974,0 1.07666,-0.18128 0.46692,-0.18127 0.69214,-0.49438 0.23071,-0.3186 0.23071,-0.69214 0,-0.37903 -0.21972,-0.65918 -0.21973,-0.28564 -0.7251,-0.47791 -0.3241,-0.12634 -1.43372,-0.39001 -1.10961,-0.26916 -1.55456,-0.50537 -0.57678,-0.30212 -0.86243,-0.74707 -0.28015,-0.45044 -0.28015,-1.00525 0,-0.60974 0.34607,-1.13709 0.34607,-0.53283 1.01074,-0.80749 0.66468,-0.27466 1.47766,-0.27466 0.89539,0 1.57654,0.29114 0.68665,0.28564 1.05469,0.84595 0.36804,0.5603 0.39551,1.26892 l -1.02173,0.0769 q -0.0824,-0.76355 -0.5603,-1.15356 -0.47242,-0.39002 -1.40076,-0.39002 -0.9668,0 -1.41174,0.35706 -0.43946,0.35156 -0.43946,0.85144 0,0.43396 0.31311,0.71411 0.30762,0.28015 1.60401,0.57678 1.30188,0.29114 1.78528,0.51087 0.70312,0.32409 1.0382,0.82397 0.33509,0.49439 0.33509,1.14258 0,0.6427 -0.36805,1.21399 -0.36804,0.56579 -1.06018,0.8844 -0.68664,0.31311 -1.54907,0.31311 -1.09314,0 -1.83472,-0.31861 -0.73608,-0.3186 -1.15905,-0.95581 -0.41748,-0.6427 -0.43946,-1.45019 z" />
      <path
         id="path5394"
         style="font-style:normal;font-variant:normal;font-weight:normal;font-stretch:normal;font-size:11.25px;font-family:Arial;-inkscape-font-specification:Arial;text-align:center;text-anchor:middle;fill:#725034;fill-opacity:1"
         d="m 365.94873,137.75323 1.06567,0.26917 q -0.33508,1.31286 -1.20849,2.005 -0.86792,0.68665 -2.12586,0.68665 -1.30188,0 -2.12036,-0.52735 -0.81299,-0.53283 -1.24145,-1.53808 -0.42298,-1.00525 -0.42298,-2.15881 0,-1.25794 0.47791,-2.19178 0.4834,-0.93933 1.3678,-1.42273 0.88989,-0.48889 1.95556,-0.48889 1.2085,0 2.03247,0.61524 0.82398,0.61523 1.14808,1.73034 l -1.0492,0.2472 q -0.28015,-0.87891 -0.81299,-1.27991 -0.53283,-0.401 -1.34033,-0.401 -0.92834,0 -1.55456,0.44494 -0.62073,0.44495 -0.87342,1.19751 -0.25268,0.74707 -0.25268,1.54358 0,1.02722 0.29663,1.79627 0.30212,0.76355 0.93384,1.14257 0.63171,0.37903 1.36779,0.37903 0.89539,0 1.51612,-0.51635 0.62072,-0.51636 0.84045,-1.5326 z" />
      <path
         id="path5396"
         style="font-style:normal;font-variant:normal;font-weight:normal;font-stretch:normal;font-size:11.25px;font-family:Arial;-inkscape-font-specification:Arial;text-align:center;text-anchor:middle;fill:#725034;fill-opacity:1"
         d="m 373.61719,132.52374 1.06567,0 0,4.65271 q 0,1.21399 -0.27466,1.9281 -0.27466,0.71411 -0.99426,1.16455 -0.71411,0.44495 -1.87866,0.44495 -1.13159,0 -1.8512,-0.39002 -0.7196,-0.39001 -1.02722,-1.12609 -0.30762,-0.74158 -0.30762,-2.02149 l 0,-4.65271 1.06568,0 0,4.64722 q 0,1.04919 0.19226,1.54907 0.19775,0.49438 0.67016,0.76355 0.47791,0.26916 1.16455,0.26916 1.17554,0 1.67542,-0.53283 0.49988,-0.53284 0.49988,-2.04895 l 0,-4.64722 z" />
    </g>
  </g>
</svg>
