<?xml version="1.0" encoding="UTF-8" standalone="no"?>
<svg
   xmlns:dc="http://purl.org/dc/elements/1.1/"
   xmlns:cc="http://creativecommons.org/ns#"
   xmlns:rdf="http://www.w3.org/1999/02/22-rdf-syntax-ns#"
   xmlns:svg="http://www.w3.org/2000/svg"
   xmlns="http://www.w3.org/2000/svg"
   version="1.1"
   id="svg2"
   viewBox="0 0 35.046388 8.3276365"
   height="2.350244mm"
   width="9.8908691mm">
  <defs
     id="defs4" />
  <metadata
     id="metadata7">
    <rdf:RDF>
      <cc:Work
         rdf:about="">
        <dc:format>image/svg+xml</dc:format>
        <dc:type
           rdf:resource="http://purl.org/dc/dcmitype/StillImage" />
        <dc:title></dc:title>
      </cc:Work>
    </rdf:RDF>
  </metadata>
  <g
     transform="translate(-278.21502,-112.08747)"
     id="layer1">
    <g
       id="flowRoot4136"
       style="font-style:normal;font-weight:normal;font-size:40px;line-height:125%;font-family:sans-serif;letter-spacing:0px;word-spacing:0px;fill:#000000;fill-opacity:1;stroke:none;stroke-width:1px;stroke-linecap:butt;stroke-linejoin:miter;stroke-opacity:1"
       transform="translate(-41.70649,-20.298946)">
      <path
         id="path5446"
         style="font-style:normal;font-variant:normal;font-weight:normal;font-stretch:normal;font-size:11.25px;font-family:Arial;-inkscape-font-specification:Arial;text-align:center;text-anchor:middle;fill:#725034;fill-opacity:1"
         d="m 323.95898,137.41815 0,-0.94482 3.41126,-0.006 0,2.98828 q -0.78552,0.62622 -1.62048,0.94483 -0.83497,0.31311 -1.71387,0.31311 -1.18652,0 -2.15881,-0.50537 -0.9668,-0.51087 -1.46119,-1.47217 -0.49438,-0.9613 -0.49438,-2.14783 0,-1.17553 0.48889,-2.19177 0.49439,-1.02173 1.41724,-1.51611 0.92285,-0.49439 2.12585,-0.49439 0.87341,0 1.57654,0.28565 0.70862,0.28015 1.10962,0.78552 0.401,0.50537 0.60974,1.31836 l -0.9613,0.26367 q -0.18128,-0.61523 -0.45044,-0.9668 -0.26917,-0.35156 -0.76905,-0.5603 -0.49987,-0.21423 -1.10962,-0.21423 -0.73059,0 -1.26342,0.22522 -0.53284,0.21972 -0.86243,0.58227 -0.3241,0.36255 -0.50537,0.79651 -0.30762,0.74707 -0.30762,1.62048 0,1.07666 0.36804,1.80176 0.37354,0.7251 1.08216,1.07666 0.70862,0.35156 1.50512,0.35156 0.69214,0 1.35132,-0.26367 0.65918,-0.26916 0.99976,-0.57129 l 0,-1.49963 -2.36756,0 z" />
      <path
         id="path5448"
         style="font-style:normal;font-variant:normal;font-weight:normal;font-stretch:normal;font-size:11.25px;font-family:Arial;-inkscape-font-specification:Arial;text-align:center;text-anchor:middle;fill:#725034;fill-opacity:1"
         d="m 328.95227,140.57672 0,-8.05298 3.57056,0 q 1.07666,0 1.63696,0.21973 0.5603,0.21423 0.89539,0.76355 0.33508,0.54931 0.33508,1.21399 0,0.85693 -0.55481,1.4447 -0.55481,0.58777 -1.71387,0.74707 0.42298,0.20325 0.6427,0.401 0.46692,0.42847 0.8844,1.07117 l 1.40076,2.19177 -1.34033,0 -1.06568,-1.67542 q -0.46692,-0.72509 -0.76904,-1.10961 -0.30212,-0.38453 -0.54382,-0.53834 -0.23621,-0.1538 -0.4834,-0.21423 -0.18128,-0.0384 -0.59326,-0.0384 l -1.23597,0 0,3.57605 -1.06567,0 z m 1.06567,-4.4989 2.29065,0 q 0.73059,0 1.14258,-0.14832 0.41199,-0.15381 0.62622,-0.4834 0.21424,-0.33508 0.21424,-0.72509 0,-0.57129 -0.41748,-0.93933 -0.41199,-0.36805 -1.30738,-0.36805 l -2.54883,0 0,2.66419 z" />
      <path
         id="path5450"
         style="font-style:normal;font-variant:normal;font-weight:normal;font-stretch:normal;font-size:11.25px;font-family:Arial;-inkscape-font-specification:Arial;text-align:center;text-anchor:middle;fill:#725034;fill-opacity:1"
         d="m 342.3501,132.52374 1.06567,0 0,4.65271 q 0,1.21399 -0.27466,1.9281 -0.27465,0.71411 -0.99426,1.16455 -0.71411,0.44495 -1.87866,0.44495 -1.13159,0 -1.8512,-0.39002 -0.7196,-0.39001 -1.02722,-1.12609 -0.30762,-0.74158 -0.30762,-2.02149 l 0,-4.65271 1.06568,0 0,4.64722 q 0,1.04919 0.19226,1.54907 0.19775,0.49438 0.67016,0.76355 0.47791,0.26916 1.16455,0.26916 1.17554,0 1.67542,-0.53283 0.49988,-0.53284 0.49988,-2.04895 l 0,-4.64722 z" />
      <path
         id="path5452"
         style="font-style:normal;font-variant:normal;font-weight:normal;font-stretch:normal;font-size:11.25px;font-family:Arial;-inkscape-font-specification:Arial;text-align:center;text-anchor:middle;fill:#725034;fill-opacity:1"
         d="m 345.37683,140.57672 0,-8.05298 1.06567,0 0,8.05298 -1.06567,0 z" />
      <path
         id="path5454"
         style="font-style:normal;font-variant:normal;font-weight:normal;font-stretch:normal;font-size:11.25px;font-family:Arial;-inkscape-font-specification:Arial;text-align:center;text-anchor:middle;fill:#725034;fill-opacity:1"
         d="m 347.43127,140.57672 3.09266,-8.05298 1.14807,0 3.2959,8.05298 -1.21399,0 -0.93933,-2.43897 -3.36731,0 -0.8844,2.43897 -1.1316,0 z m 2.32361,-3.30689 2.73011,0 -0.84046,-2.23022 q -0.38452,-1.01624 -0.57129,-1.66992 -0.15381,0.77453 -0.43396,1.53808 l -0.8844,2.36206 z" />
    </g>
  </g>
</svg>
