<?xml version="1.0" encoding="UTF-8" standalone="no"?>
<svg
   xmlns:dc="http://purl.org/dc/elements/1.1/"
   xmlns:cc="http://creativecommons.org/ns#"
   xmlns:rdf="http://www.w3.org/1999/02/22-rdf-syntax-ns#"
   xmlns:svg="http://www.w3.org/2000/svg"
   xmlns="http://www.w3.org/2000/svg"
   version="1.1"
   id="svg2"
   viewBox="0 0 77.349248 10.222778"
   height="2.8850951mm"
   width="21.829676mm">
  <defs
     id="defs4" />
  <metadata
     id="metadata7">
    <rdf:RDF>
      <cc:Work
         rdf:about="">
        <dc:format>image/svg+xml</dc:format>
        <dc:type
           rdf:resource="http://purl.org/dc/dcmitype/StillImage" />
        <dc:title></dc:title>
      </cc:Work>
    </rdf:RDF>
  </metadata>
  <g
     transform="translate(-256.17095,-110.19232)"
     id="layer1">
    <g
       id="flowRoot4136"
       style="font-style:normal;font-weight:normal;font-size:40px;line-height:125%;font-family:sans-serif;letter-spacing:0px;word-spacing:0px;fill:#000000;fill-opacity:1;stroke:none;stroke-width:1px;stroke-linecap:butt;stroke-linejoin:miter;stroke-opacity:1"
       transform="translate(-41.70649,-20.298946)">
      <path
         id="path5627"
         style="font-style:normal;font-variant:normal;font-weight:normal;font-stretch:normal;font-size:11.25px;font-family:Arial;-inkscape-font-specification:Arial;text-align:center;text-anchor:middle;fill:#725034;fill-opacity:1"
         d="m 299.10242,140.57672 0,-8.05298 1.06567,0 0,8.05298 -1.06567,0 z m 0.52734,-9.4812 -0.62073,0.93384 -1.13159,0 1.18652,-1.53809 1.05469,0 1.23596,1.53809 -1.1206,0 -0.60425,-0.93384 z" />
      <path
         id="path5629"
         style="font-style:normal;font-variant:normal;font-weight:normal;font-stretch:normal;font-size:11.25px;font-family:Arial;-inkscape-font-specification:Arial;text-align:center;text-anchor:middle;fill:#725034;fill-opacity:1"
         d="m 302.03027,140.57672 0,-8.05298 1.09314,0 4.22974,6.32263 0,-6.32263 1.02173,0 0,8.05298 -1.09314,0 -4.22974,-6.32813 0,6.32813 -1.02173,0 z" />
      <path
         id="path5631"
         style="font-style:normal;font-variant:normal;font-weight:normal;font-stretch:normal;font-size:11.25px;font-family:Arial;-inkscape-font-specification:Arial;text-align:center;text-anchor:middle;fill:#725034;fill-opacity:1"
         d="m 312.22009,140.57672 0,-7.10266 -2.6532,0 0,-0.95032 6.38306,0 0,0.95032 -2.66418,0 0,7.10266 -1.06568,0 z" />
      <path
         id="path5633"
         style="font-style:normal;font-variant:normal;font-weight:normal;font-stretch:normal;font-size:11.25px;font-family:Arial;-inkscape-font-specification:Arial;text-align:center;text-anchor:middle;fill:#725034;fill-opacity:1"
         d="m 317.06506,140.57672 0,-8.05298 3.57056,0 q 1.07666,0 1.63696,0.21973 0.56031,0.21423 0.89539,0.76355 0.33508,0.54931 0.33508,1.21399 0,0.85693 -0.55481,1.4447 -0.55481,0.58777 -1.71387,0.74707 0.42298,0.20325 0.64271,0.401 0.46691,0.42847 0.88439,1.07117 l 1.40076,2.19177 -1.34033,0 -1.06567,-1.67542 q -0.46692,-0.72509 -0.76905,-1.10961 -0.30212,-0.38453 -0.54382,-0.53834 -0.23621,-0.1538 -0.4834,-0.21423 -0.18127,-0.0384 -0.59326,-0.0384 l -1.23596,0 0,3.57605 -1.06568,0 z m 1.06568,-4.4989 2.29065,0 q 0.73059,0 1.14257,-0.14832 0.41199,-0.15381 0.62623,-0.4834 0.21423,-0.33508 0.21423,-0.72509 0,-0.57129 -0.41748,-0.93933 -0.41199,-0.36805 -1.30737,-0.36805 l -2.54883,0 0,2.66419 z" />
      <path
         id="path5635"
         style="font-style:normal;font-variant:normal;font-weight:normal;font-stretch:normal;font-size:11.25px;font-family:Arial;-inkscape-font-specification:Arial;text-align:center;text-anchor:middle;fill:#725034;fill-opacity:1"
         d="m 325.20044,140.57672 0,-8.05298 5.82275,0 0,0.95032 -4.75708,0 0,2.46643 4.45496,0 0,0.94482 -4.45496,0 0,2.74109 4.94385,0 0,0.95032 -6.00952,0 z" />
      <path
         id="path5637"
         style="font-style:normal;font-variant:normal;font-weight:normal;font-stretch:normal;font-size:11.25px;font-family:Arial;-inkscape-font-specification:Arial;text-align:center;text-anchor:middle;fill:#725034;fill-opacity:1"
         d="m 335.76929,140.57672 0,-8.05298 1.06567,0 0,7.10266 3.96607,0 0,0.95032 -5.03174,0 z" />
      <path
         id="path5639"
         style="font-style:normal;font-variant:normal;font-weight:normal;font-stretch:normal;font-size:11.25px;font-family:Arial;-inkscape-font-specification:Arial;text-align:center;text-anchor:middle;fill:#725034;fill-opacity:1"
         d="m 341.19104,140.57672 3.09265,-8.05298 1.14807,0 3.2959,8.05298 -1.21399,0 -0.93933,-2.43897 -3.36731,0 -0.8844,2.43897 -1.13159,0 z m 2.32361,-3.30689 2.7301,0 -0.84045,-2.23022 q -0.38452,-1.01624 -0.57129,-1.66992 -0.15381,0.77453 -0.43396,1.53808 l -0.8844,2.36206 z" />
      <path
         id="path5641"
         style="font-style:normal;font-variant:normal;font-weight:normal;font-stretch:normal;font-size:11.25px;font-family:Arial;-inkscape-font-specification:Arial;text-align:center;text-anchor:middle;fill:#725034;fill-opacity:1"
         d="m 355.33594,137.75323 1.06567,0.26917 q -0.33508,1.31286 -1.20849,2.005 -0.86792,0.68665 -2.12586,0.68665 -1.30188,0 -2.12036,-0.52735 -0.81299,-0.53283 -1.24146,-1.53808 -0.42297,-1.00525 -0.42297,-2.15881 0,-1.25794 0.47791,-2.19178 0.48339,-0.93933 1.36779,-1.42273 0.8899,-0.48889 1.95557,-0.48889 1.2085,0 2.03247,0.61524 0.82398,0.61523 1.14807,1.73034 l -1.04919,0.2472 q -0.28015,-0.87891 -0.81299,-1.27991 -0.53284,-0.401 -1.34033,-0.401 -0.92835,0 -1.55457,0.44494 -0.62073,0.44495 -0.87341,1.19751 -0.25269,0.74707 -0.25269,1.54358 0,1.02722 0.29663,1.79627 0.30213,0.76355 0.93384,1.14257 0.63172,0.37903 1.3678,0.37903 0.89539,0 1.51611,-0.51635 0.62073,-0.51636 0.84046,-1.5326 z" />
      <path
         id="path5643"
         style="font-style:normal;font-variant:normal;font-weight:normal;font-stretch:normal;font-size:11.25px;font-family:Arial;-inkscape-font-specification:Arial;text-align:center;text-anchor:middle;fill:#725034;fill-opacity:1"
         d="m 363.00439,132.52374 1.06568,0 0,4.65271 q 0,1.21399 -0.27466,1.9281 -0.27466,0.71411 -0.99426,1.16455 -0.71411,0.44495 -1.87866,0.44495 -1.1316,0 -1.8512,-0.39002 -0.71961,-0.39001 -1.02722,-1.12609 -0.30762,-0.74158 -0.30762,-2.02149 l 0,-4.65271 1.06567,0 0,4.64722 q 0,1.04919 0.19226,1.54907 0.19776,0.49438 0.67017,0.76355 0.47791,0.26916 1.16455,0.26916 1.17554,0 1.67542,-0.53283 0.49987,-0.53284 0.49987,-2.04895 l 0,-4.64722 z" />
      <path
         id="path5645"
         style="font-style:normal;font-variant:normal;font-weight:normal;font-stretch:normal;font-size:11.25px;font-family:Arial;-inkscape-font-specification:Arial;text-align:center;text-anchor:middle;fill:#725034;fill-opacity:1"
         d="m 365.86633,140.57672 0,-8.05298 3.57056,0 q 1.07666,0 1.63696,0.21973 0.56031,0.21423 0.89539,0.76355 0.33508,0.54931 0.33508,1.21399 0,0.85693 -0.55481,1.4447 -0.55481,0.58777 -1.71387,0.74707 0.42298,0.20325 0.6427,0.401 0.46692,0.42847 0.8844,1.07117 l 1.40076,2.19177 -1.34033,0 -1.06567,-1.67542 q -0.46692,-0.72509 -0.76905,-1.10961 -0.30212,-0.38453 -0.54382,-0.53834 -0.23621,-0.1538 -0.4834,-0.21423 -0.18127,-0.0384 -0.59326,-0.0384 l -1.23596,0 0,3.57605 -1.06568,0 z m 1.06568,-4.4989 2.29065,0 q 0.73059,0 1.14257,-0.14832 0.41199,-0.15381 0.62623,-0.4834 0.21423,-0.33508 0.21423,-0.72509 0,-0.57129 -0.41748,-0.93933 -0.41199,-0.36805 -1.30738,-0.36805 l -2.54882,0 0,2.66419 z" />
      <path
         id="path5647"
         style="font-style:normal;font-variant:normal;font-weight:normal;font-stretch:normal;font-size:11.25px;font-family:Arial;-inkscape-font-specification:Arial;text-align:center;text-anchor:middle;fill:#725034;fill-opacity:1"
         d="m 374.16101,140.57672 0,-8.05298 1.06567,0 0,8.05298 -1.06567,0 z" />
    </g>
  </g>
</svg>
