<?xml version="1.0" encoding="UTF-8" standalone="no"?>
<svg
   xmlns:dc="http://purl.org/dc/elements/1.1/"
   xmlns:cc="http://creativecommons.org/ns#"
   xmlns:rdf="http://www.w3.org/1999/02/22-rdf-syntax-ns#"
   xmlns:svg="http://www.w3.org/2000/svg"
   xmlns="http://www.w3.org/2000/svg"
   version="1.1"
   id="svg2"
   viewBox="0 0 20.236818 8.3276365"
   height="2.350244mm"
   width="5.7112794mm">
  <defs
     id="defs4" />
  <metadata
     id="metadata7">
    <rdf:RDF>
      <cc:Work
         rdf:about="">
        <dc:format>image/svg+xml</dc:format>
        <dc:type
           rdf:resource="http://purl.org/dc/dcmitype/StillImage" />
        <dc:title></dc:title>
      </cc:Work>
    </rdf:RDF>
  </metadata>
  <g
     transform="translate(-285.5429,-112.08747)"
     id="layer1">
    <g
       id="flowRoot4136"
       style="font-style:normal;font-weight:normal;font-size:40px;line-height:125%;font-family:sans-serif;letter-spacing:0px;word-spacing:0px;fill:#000000;fill-opacity:1;stroke:none;stroke-width:1px;stroke-linecap:butt;stroke-linejoin:miter;stroke-opacity:1"
       transform="translate(-41.70649,-20.298946)">
      <path
         id="path5697"
         style="font-style:normal;font-variant:normal;font-weight:normal;font-stretch:normal;font-size:11.25px;font-family:Arial;-inkscape-font-specification:Arial;text-align:center;text-anchor:middle;fill:#725034;fill-opacity:1"
         d="m 327.24939,140.57672 0,-8.05298 1.06567,0 0,8.05298 -1.06567,0 z" />
      <path
         id="path5699"
         style="font-style:normal;font-variant:normal;font-weight:normal;font-stretch:normal;font-size:11.25px;font-family:Arial;-inkscape-font-specification:Arial;text-align:center;text-anchor:middle;fill:#725034;fill-opacity:1"
         d="m 330.20471,140.57672 0,-8.05298 3.57056,0 q 1.07666,0 1.63696,0.21973 0.5603,0.21423 0.89539,0.76355 0.33508,0.54931 0.33508,1.21399 0,0.85693 -0.55481,1.4447 -0.55481,0.58777 -1.71387,0.74707 0.42298,0.20325 0.6427,0.401 0.46692,0.42847 0.8844,1.07117 l 1.40076,2.19177 -1.34033,0 -1.06568,-1.67542 q -0.46691,-0.72509 -0.76904,-1.10961 -0.30212,-0.38453 -0.54382,-0.53834 -0.23621,-0.1538 -0.4834,-0.21423 -0.18128,-0.0384 -0.59326,-0.0384 l -1.23596,0 0,3.57605 -1.06568,0 z m 1.06568,-4.4989 2.29065,0 q 0.73059,0 1.14257,-0.14832 0.41199,-0.15381 0.62622,-0.4834 0.21424,-0.33508 0.21424,-0.72509 0,-0.57129 -0.41748,-0.93933 -0.41199,-0.36805 -1.30738,-0.36805 l -2.54882,0 0,2.66419 z" />
      <path
         id="path5701"
         style="font-style:normal;font-variant:normal;font-weight:normal;font-stretch:normal;font-size:11.25px;font-family:Arial;-inkscape-font-specification:Arial;text-align:center;text-anchor:middle;fill:#725034;fill-opacity:1"
         d="m 338.49939,140.57672 0,-8.05298 1.06567,0 0,8.05298 -1.06567,0 z" />
      <path
         id="path5703"
         style="font-style:normal;font-variant:normal;font-weight:normal;font-stretch:normal;font-size:11.25px;font-family:Arial;-inkscape-font-specification:Arial;text-align:center;text-anchor:middle;fill:#725034;fill-opacity:1"
         d="m 341.07568,137.98944 1.00525,-0.0879 q 0.0714,0.60425 0.32959,0.99426 0.26367,0.38452 0.81299,0.62622 0.54932,0.23621 1.23596,0.23621 0.60974,0 1.07666,-0.18128 0.46692,-0.18127 0.69214,-0.49438 0.23071,-0.3186 0.23071,-0.69214 0,-0.37903 -0.21972,-0.65918 -0.21973,-0.28564 -0.7251,-0.47791 -0.3241,-0.12634 -1.43372,-0.39001 -1.10961,-0.26916 -1.55456,-0.50537 -0.57678,-0.30212 -0.86243,-0.74707 -0.28015,-0.45044 -0.28015,-1.00525 0,-0.60974 0.34607,-1.13709 0.34607,-0.53283 1.01074,-0.80749 0.66468,-0.27466 1.47766,-0.27466 0.89539,0 1.57654,0.29114 0.68665,0.28564 1.05469,0.84595 0.36804,0.5603 0.39551,1.26892 l -1.02173,0.0769 q -0.0824,-0.76355 -0.5603,-1.15356 -0.47242,-0.39002 -1.40076,-0.39002 -0.9668,0 -1.41174,0.35706 -0.43946,0.35156 -0.43946,0.85144 0,0.43396 0.31311,0.71411 0.30762,0.28015 1.60401,0.57678 1.30188,0.29114 1.78528,0.51087 0.70312,0.32409 1.0382,0.82397 0.33509,0.49439 0.33509,1.14258 0,0.6427 -0.36805,1.21399 -0.36804,0.56579 -1.06018,0.8844 -0.68664,0.31311 -1.54907,0.31311 -1.09314,0 -1.83472,-0.31861 -0.73608,-0.3186 -1.15905,-0.95581 -0.41748,-0.6427 -0.43946,-1.45019 z" />
    </g>
  </g>
</svg>
