<?xml version="1.0" encoding="UTF-8" standalone="no"?>
<svg
   xmlns:dc="http://purl.org/dc/elements/1.1/"
   xmlns:cc="http://creativecommons.org/ns#"
   xmlns:rdf="http://www.w3.org/1999/02/22-rdf-syntax-ns#"
   xmlns:svg="http://www.w3.org/2000/svg"
   xmlns="http://www.w3.org/2000/svg"
   version="1.1"
   id="svg2"
   viewBox="0 0 48.213502 12.354126"
   height="3.486609mm"
   width="13.606921mm">
  <defs
     id="defs4" />
  <metadata
     id="metadata7">
    <rdf:RDF>
      <cc:Work
         rdf:about="">
        <dc:format>image/svg+xml</dc:format>
        <dc:type
           rdf:resource="http://purl.org/dc/dcmitype/StillImage" />
        <dc:title></dc:title>
      </cc:Work>
    </rdf:RDF>
  </metadata>
  <g
     transform="translate(-271.24419,-110.30768)"
     id="layer1">
    <g
       id="flowRoot4136"
       style="font-style:normal;font-weight:normal;font-size:40px;line-height:125%;font-family:sans-serif;letter-spacing:0px;word-spacing:0px;fill:#000000;fill-opacity:1;stroke:none;stroke-width:1px;stroke-linecap:butt;stroke-linejoin:miter;stroke-opacity:1"
       transform="translate(-41.70649,-20.298946)">
      <path
         id="path6065"
         style="font-style:normal;font-variant:normal;font-weight:normal;font-stretch:normal;font-size:11.25px;font-family:Arial;-inkscape-font-specification:Arial;text-align:center;text-anchor:middle;fill:#725034;fill-opacity:1"
         d="m 312.95068,140.57672 0,-8.05298 1.60401,0 1.90613,5.70191 q 0.26367,0.7965 0.38452,1.19201 0.13733,-0.43945 0.42846,-1.29089 l 1.9281,-5.60303 1.43372,0 0,8.05298 -1.02722,0 0,-6.74011 -2.34009,6.74011 -0.9613,0 -2.3291,-6.85547 0,6.85547 -1.02723,0 z" />
      <path
         id="path6067"
         style="font-style:normal;font-variant:normal;font-weight:normal;font-stretch:normal;font-size:11.25px;font-family:Arial;-inkscape-font-specification:Arial;text-align:center;text-anchor:middle;fill:#725034;fill-opacity:1"
         d="m 321.48157,140.57672 3.09265,-8.05298 1.14807,0 3.2959,8.05298 -1.21399,0 -0.93933,-2.43897 -3.36731,0 -0.8844,2.43897 -1.13159,0 z m 2.32361,-3.30689 2.7301,0 -0.84046,-2.23022 q -0.38452,-1.01624 -0.57128,-1.66992 -0.15381,0.77453 -0.43396,1.53808 l -0.8844,2.36206 z m 2.37304,-6.6632 0.67566,0 q -0.0824,0.68664 -0.50537,1.05468 -0.41748,0.36805 -1.11511,0.36805 -0.70313,0 -1.1261,-0.36255 -0.41748,-0.36804 -0.49988,-1.06018 l 0.67566,0 q 0.0769,0.37353 0.30213,0.5603 0.23071,0.18127 0.61523,0.18127 0.44495,0 0.67017,-0.17578 0.23071,-0.18127 0.30761,-0.56579 z" />
      <path
         id="path6069"
         style="font-style:normal;font-variant:normal;font-weight:normal;font-stretch:normal;font-size:11.25px;font-family:Arial;-inkscape-font-specification:Arial;text-align:center;text-anchor:middle;fill:#725034;fill-opacity:1"
         d="m 329.89709,140.57672 0,-8.05298 3.57056,0 q 1.07666,0 1.63696,0.21973 0.56031,0.21423 0.89539,0.76355 0.33508,0.54931 0.33508,1.21399 0,0.85693 -0.55481,1.4447 -0.55481,0.58777 -1.71386,0.74707 0.42297,0.20325 0.6427,0.401 0.46692,0.42847 0.8844,1.07117 l 1.40075,2.19177 -1.34033,0 -1.06567,-1.67542 q -0.46692,-0.72509 -0.76905,-1.10961 -0.30212,-0.38453 -0.54382,-0.53834 -0.23621,-0.1538 -0.4834,-0.21423 -0.18127,-0.0384 -0.59326,-0.0384 l -1.23596,0 0,3.57605 -1.06568,0 z m 1.06568,-4.4989 2.29065,0 q 0.73059,0 1.14258,-0.14832 0.41198,-0.15381 0.62622,-0.4834 0.21423,-0.33508 0.21423,-0.72509 0,-0.57129 -0.41748,-0.93933 -0.41199,-0.36805 -1.30737,-0.36805 l -2.54883,0 0,2.66419 z" />
      <path
         id="path6071"
         style="font-style:normal;font-variant:normal;font-weight:normal;font-stretch:normal;font-size:11.25px;font-family:Arial;-inkscape-font-specification:Arial;text-align:center;text-anchor:middle;fill:#725034;fill-opacity:1"
         d="m 337.1261,140.57672 3.09265,-8.05298 1.14807,0 3.2959,8.05298 -1.21399,0 -0.93933,-2.43897 -3.36731,0 -0.8844,2.43897 -1.13159,0 z m 2.32361,-3.30689 2.7301,0 -0.84045,-2.23022 q -0.38453,-1.01624 -0.57129,-1.66992 -0.15381,0.77453 -0.43396,1.53808 l -0.8844,2.36206 z m 2.37304,-6.6632 0.67566,0 q -0.0824,0.68664 -0.50537,1.05468 -0.41748,0.36805 -1.11511,0.36805 -0.70313,0 -1.1261,-0.36255 -0.41748,-0.36804 -0.49988,-1.06018 l 0.67566,0 q 0.0769,0.37353 0.30213,0.5603 0.23071,0.18127 0.61523,0.18127 0.44495,0 0.67017,-0.17578 0.23071,-0.18127 0.30761,-0.56579 z" />
      <path
         id="path6073"
         style="font-style:normal;font-variant:normal;font-weight:normal;font-stretch:normal;font-size:11.25px;font-family:Arial;-inkscape-font-specification:Arial;text-align:center;text-anchor:middle;fill:#725034;fill-opacity:1"
         d="m 349.05725,141.6369 q 0,0.47791 -0.12085,0.76904 -0.12085,0.29663 -0.34057,0.55481 l -0.64271,0 q 0.2472,-0.26367 0.37903,-0.49988 0.13733,-0.2362 0.13733,-0.48889 l -0.4834,0 0,-0.85693 1.07117,0 0,0.52185 z m 2.58728,-3.19702 q 0,0.48889 -0.19226,0.90088 -0.18677,0.41198 -0.58227,0.71411 -0.39551,0.29663 -0.99976,0.46692 -0.59876,0.16479 -1.42273,0.16479 -1.4447,0 -2.2522,-0.50537 -0.80749,-0.50537 -1.02722,-1.46118 l 1.01624,-0.20325 q 0.0769,0.30213 0.2362,0.54932 0.1593,0.24719 0.42847,0.42847 0.27466,0.17578 0.67566,0.27465 0.401,0.0989 0.9613,0.0989 0.46692,0 0.85694,-0.0769 0.39001,-0.0824 0.67016,-0.2472 0.28015,-0.16479 0.43396,-0.42297 0.1593,-0.26367 0.1593,-0.62622 0,-0.37903 -0.17578,-0.61523 -0.17029,-0.23621 -0.4834,-0.39002 -0.31311,-0.15381 -0.74707,-0.25818 -0.43396,-0.10437 -0.9613,-0.22522 -0.3241,-0.0714 -0.65369,-0.15381 -0.32409,-0.0879 -0.62622,-0.20324 -0.29663,-0.12085 -0.5603,-0.28015 -0.26367,-0.15931 -0.45593,-0.37903 -0.19226,-0.22522 -0.30213,-0.51636 -0.10986,-0.29663 -0.10986,-0.68115 0,-0.54932 0.21973,-0.93933 0.22522,-0.39551 0.62072,-0.6482 0.39551,-0.25268 0.93384,-0.36804 0.53833,-0.11536 1.16455,-0.11536 0.71961,0 1.23047,0.11536 0.51087,0.10986 0.86243,0.33508 0.35156,0.22522 0.5603,0.56031 0.21423,0.32959 0.34058,0.76904 l -1.03272,0.18127 q -0.0769,-0.28015 -0.22522,-0.49987 -0.14282,-0.21973 -0.37903,-0.36805 -0.2362,-0.14831 -0.57678,-0.22522 -0.33508,-0.0769 -0.79101,-0.0769 -0.53833,0 -0.90638,0.0989 -0.36254,0.0934 -0.58776,0.25818 -0.21973,0.16479 -0.31861,0.39001 -0.0934,0.21973 -0.0934,0.47791 0,0.34607 0.17029,0.57128 0.17578,0.21973 0.47241,0.36805 0.29663,0.14831 0.68664,0.24719 0.39002,0.0989 0.82947,0.19775 0.35706,0.0824 0.70862,0.17029 0.35706,0.0824 0.68115,0.20325 0.3241,0.11535 0.60425,0.27466 0.28564,0.1593 0.49438,0.39001 0.20875,0.23071 0.3241,0.54382 0.12085,0.31311 0.12085,0.73609 z" />
      <path
         id="path6075"
         style="font-style:normal;font-variant:normal;font-weight:normal;font-stretch:normal;font-size:11.25px;font-family:Arial;-inkscape-font-specification:Arial;text-align:center;text-anchor:middle;fill:#725034;fill-opacity:1"
         d="m 355.08875,140.57672 0,-7.10266 -2.6532,0 0,-0.95032 6.38305,0 0,0.95032 -2.66418,0 0,7.10266 -1.06567,0 z" />
      <path
         id="path6077"
         style="font-style:normal;font-variant:normal;font-weight:normal;font-stretch:normal;font-size:11.25px;font-family:Arial;-inkscape-font-specification:Arial;text-align:center;text-anchor:middle;fill:#725034;fill-opacity:1"
         d="m 360.09851,140.57672 0,-8.05298 1.06567,0 0,8.05298 -1.06567,0 z" />
    </g>
  </g>
</svg>
