<?xml version="1.0" encoding="UTF-8" standalone="no"?>
<svg
   xmlns:dc="http://purl.org/dc/elements/1.1/"
   xmlns:cc="http://creativecommons.org/ns#"
   xmlns:rdf="http://www.w3.org/1999/02/22-rdf-syntax-ns#"
   xmlns:svg="http://www.w3.org/2000/svg"
   xmlns="http://www.w3.org/2000/svg"
   version="1.1"
   id="svg2"
   viewBox="0 0 57.925418 10.579834"
   height="2.9858642mm"
   width="16.347839mm">
  <defs
     id="defs4" />
  <metadata
     id="metadata7">
    <rdf:RDF>
      <cc:Work
         rdf:about="">
        <dc:format>image/svg+xml</dc:format>
        <dc:type
           rdf:resource="http://purl.org/dc/dcmitype/StillImage" />
        <dc:title></dc:title>
      </cc:Work>
    </rdf:RDF>
  </metadata>
  <g
     transform="translate(-266.22344,-112.08197)"
     id="layer1">
    <g
       id="flowRoot4136"
       style="font-style:normal;font-weight:normal;font-size:40px;line-height:125%;font-family:sans-serif;letter-spacing:0px;word-spacing:0px;fill:#000000;fill-opacity:1;stroke:none;stroke-width:1px;stroke-linecap:butt;stroke-linejoin:miter;stroke-opacity:1"
       transform="translate(-41.70649,-20.298946)">
      <path
         id="path4138"
         style="font-style:normal;font-variant:normal;font-weight:normal;font-stretch:normal;font-size:11.25px;font-family:Arial;-inkscape-font-specification:Arial;text-align:center;text-anchor:middle;fill:#725034;fill-opacity:1"
         d="m 307.92993,137.98944 1.00525,-0.0879 q 0.0714,0.60425 0.32959,0.99426 0.26367,0.38452 0.81299,0.62622 0.54932,0.23621 1.23596,0.23621 0.60974,0 1.07666,-0.18128 0.46692,-0.18127 0.69214,-0.49438 0.23071,-0.3186 0.23071,-0.69214 0,-0.37903 -0.21972,-0.65918 -0.21973,-0.28564 -0.7251,-0.47791 -0.3241,-0.12634 -1.43372,-0.39001 -1.10962,-0.26916 -1.55456,-0.50537 -0.57679,-0.30212 -0.86243,-0.74707 -0.28015,-0.45044 -0.28015,-1.00525 0,-0.60974 0.34607,-1.13709 0.34607,-0.53283 1.01074,-0.80749 0.66467,-0.27466 1.47766,-0.27466 0.89539,0 1.57654,0.29114 0.68665,0.28564 1.05469,0.84595 0.36804,0.5603 0.3955,1.26892 l -1.02172,0.0769 q -0.0824,-0.76355 -0.56031,-1.15356 -0.47241,-0.39002 -1.40075,-0.39002 -0.9668,0 -1.41175,0.35706 -0.43945,0.35156 -0.43945,0.85144 0,0.43396 0.31311,0.71411 0.30762,0.28015 1.604,0.57678 1.30188,0.29114 1.78528,0.51087 0.70313,0.32409 1.03821,0.82397 0.33508,0.49439 0.33508,1.14258 0,0.6427 -0.36804,1.21399 -0.36804,0.56579 -1.06018,0.8844 -0.68664,0.31311 -1.54907,0.31311 -1.09314,0 -1.83472,-0.31861 -0.73608,-0.3186 -1.15906,-0.95581 -0.41748,-0.6427 -0.43945,-1.45019 z" />
      <path
         id="path4140"
         style="font-style:normal;font-variant:normal;font-weight:normal;font-stretch:normal;font-size:11.25px;font-family:Arial;-inkscape-font-specification:Arial;text-align:center;text-anchor:middle;fill:#725034;fill-opacity:1"
         d="m 315.48303,136.6546 q 0,-2.005 1.07666,-3.1366 1.07666,-1.13708 2.77954,-1.13708 1.11512,0 2.0105,0.53284 0.89539,0.53283 1.36231,1.48864 0.47241,0.95032 0.47241,2.15882 0,1.22497 -0.49439,2.19177 -0.49438,0.9668 -1.40075,1.46667 -0.90638,0.49439 -1.95557,0.49439 -1.13708,0 -2.03247,-0.54932 -0.89539,-0.54931 -1.35681,-1.49963 -0.46143,-0.95032 -0.46143,-2.0105 z m 1.09864,0.0165 q 0,1.45569 0.78002,2.29614 0.78553,0.83496 1.96656,0.83496 1.203,0 1.97754,-0.84594 0.78003,-0.84595 0.78003,-2.40052 0,-0.98327 -0.33509,-1.71386 -0.32959,-0.73609 -0.97229,-1.13709 -0.6372,-0.40649 -1.43371,-0.40649 -1.1316,0 -1.95008,0.78003 -0.81298,0.77453 -0.81298,2.59277 z" />
      <path
         id="path4142"
         style="font-style:normal;font-variant:normal;font-weight:normal;font-stretch:normal;font-size:11.25px;font-family:Arial;-inkscape-font-specification:Arial;text-align:center;text-anchor:middle;fill:#725034;fill-opacity:1"
         d="m 324.51929,140.57672 0,-8.05298 1.604,0 1.90613,5.70191 q 0.26367,0.7965 0.38452,1.19201 0.13733,-0.43945 0.42847,-1.29089 l 1.9281,-5.60303 1.43371,0 0,8.05298 -1.02722,0 0,-6.74011 -2.34009,6.74011 -0.9613,0 -2.3291,-6.85547 0,6.85547 -1.02722,0 z" />
      <path
         id="path4144"
         style="font-style:normal;font-variant:normal;font-weight:normal;font-stretch:normal;font-size:11.25px;font-family:Arial;-inkscape-font-specification:Arial;text-align:center;text-anchor:middle;fill:#725034;fill-opacity:1"
         d="m 333.95654,140.57672 0,-8.05298 5.82276,0 0,0.95032 -4.75708,0 0,2.46643 4.45495,0 0,0.94482 -4.45495,0 0,2.74109 4.94384,0 0,0.95032 -6.00952,0 z" />
      <path
         id="path4146"
         style="font-style:normal;font-variant:normal;font-weight:normal;font-stretch:normal;font-size:11.25px;font-family:Arial;-inkscape-font-specification:Arial;text-align:center;text-anchor:middle;fill:#725034;fill-opacity:1"
         d="m 344.98132,141.6369 q 0,0.47791 -0.12085,0.76904 -0.12085,0.29663 -0.34057,0.55481 l -0.6427,0 q 0.24719,-0.26367 0.37903,-0.49988 0.13732,-0.2362 0.13732,-0.48889 l -0.48339,0 0,-0.85693 1.07116,0 0,0.52185 z m 2.58728,-3.19702 q 0,0.48889 -0.19226,0.90088 -0.18676,0.41198 -0.58227,0.71411 -0.39551,0.29663 -0.99976,0.46692 -0.59875,0.16479 -1.42273,0.16479 -1.4447,0 -2.2522,-0.50537 -0.80749,-0.50537 -1.02722,-1.46118 l 1.01624,-0.20325 q 0.0769,0.30213 0.2362,0.54932 0.15931,0.24719 0.42847,0.42847 0.27466,0.17578 0.67566,0.27465 0.401,0.0989 0.9613,0.0989 0.46692,0 0.85694,-0.0769 0.39001,-0.0824 0.67016,-0.2472 0.28016,-0.16479 0.43396,-0.42297 0.15931,-0.26367 0.15931,-0.62622 0,-0.37903 -0.17579,-0.61523 -0.17028,-0.23621 -0.48339,-0.39002 -0.31311,-0.15381 -0.74707,-0.25818 -0.43396,-0.10437 -0.96131,-0.22522 -0.32409,-0.0714 -0.65368,-0.15381 -0.3241,-0.0879 -0.62623,-0.20324 -0.29663,-0.12085 -0.5603,-0.28015 -0.26367,-0.15931 -0.45593,-0.37903 -0.19226,-0.22522 -0.30212,-0.51636 -0.10987,-0.29663 -0.10987,-0.68115 0,-0.54932 0.21973,-0.93933 0.22522,-0.39551 0.62073,-0.6482 0.3955,-0.25268 0.93383,-0.36804 0.53833,-0.11536 1.16455,-0.11536 0.71961,0 1.23047,0.11536 0.51087,0.10986 0.86243,0.33508 0.35156,0.22522 0.5603,0.56031 0.21424,0.32959 0.34058,0.76904 l -1.03272,0.18127 q -0.0769,-0.28015 -0.22522,-0.49987 -0.14282,-0.21973 -0.37902,-0.36805 -0.23621,-0.14831 -0.57679,-0.22522 -0.33508,-0.0769 -0.79101,-0.0769 -0.53833,0 -0.90637,0.0989 -0.36255,0.0934 -0.58777,0.25818 -0.21973,0.16479 -0.31861,0.39001 -0.0934,0.21973 -0.0934,0.47791 0,0.34607 0.17029,0.57128 0.17578,0.21973 0.47241,0.36805 0.29663,0.14831 0.68665,0.24719 0.39001,0.0989 0.82946,0.19775 0.35706,0.0824 0.70862,0.17029 0.35706,0.0824 0.68115,0.20325 0.3241,0.11535 0.60425,0.27466 0.28565,0.1593 0.49439,0.39001 0.20874,0.23071 0.32409,0.54382 0.12085,0.31311 0.12085,0.73609 z" />
      <path
         id="path4148"
         style="font-style:normal;font-variant:normal;font-weight:normal;font-stretch:normal;font-size:11.25px;font-family:Arial;-inkscape-font-specification:Arial;text-align:center;text-anchor:middle;fill:#725034;fill-opacity:1"
         d="m 348.98584,140.57672 0,-8.05298 5.82275,0 0,0.95032 -4.75708,0 0,2.46643 4.45496,0 0,0.94482 -4.45496,0 0,2.74109 4.94385,0 0,0.95032 -6.00952,0 z" />
      <path
         id="path4150"
         style="font-style:normal;font-variant:normal;font-weight:normal;font-stretch:normal;font-size:11.25px;font-family:Arial;-inkscape-font-specification:Arial;text-align:center;text-anchor:middle;fill:#725034;fill-opacity:1"
         d="m 356.46753,140.57672 0,-8.05298 1.09314,0 4.22974,6.32263 0,-6.32263 1.02172,0 0,8.05298 -1.09314,0 -4.22973,-6.32813 0,6.32813 -1.02173,0 z" />
      <path
         id="path4152"
         style="font-style:normal;font-variant:normal;font-weight:normal;font-stretch:normal;font-size:11.25px;font-family:Arial;-inkscape-font-specification:Arial;text-align:center;text-anchor:middle;fill:#725034;fill-opacity:1"
         d="m 364.78967,140.57672 0,-8.05298 1.06568,0 0,8.05298 -1.06568,0 z" />
    </g>
  </g>
</svg>
