<?xml version="1.0" encoding="UTF-8" standalone="no"?>
<svg
   xmlns:dc="http://purl.org/dc/elements/1.1/"
   xmlns:cc="http://creativecommons.org/ns#"
   xmlns:rdf="http://www.w3.org/1999/02/22-rdf-syntax-ns#"
   xmlns:svg="http://www.w3.org/2000/svg"
   xmlns="http://www.w3.org/2000/svg"
   version="1.1"
   id="svg2"
   viewBox="0 0 39.995731 8.3331301"
   height="2.3517945mm"
   width="11.287683mm">
  <defs
     id="defs4" />
  <metadata
     id="metadata7">
    <rdf:RDF>
      <cc:Work
         rdf:about="">
        <dc:format>image/svg+xml</dc:format>
        <dc:type
           rdf:resource="http://purl.org/dc/dcmitype/StillImage" />
        <dc:title></dc:title>
      </cc:Work>
    </rdf:RDF>
  </metadata>
  <g
     transform="translate(-275.61675,-112.08197)"
     id="layer1">
    <g
       id="flowRoot4136"
       style="font-style:normal;font-weight:normal;font-size:40px;line-height:125%;font-family:sans-serif;letter-spacing:0px;word-spacing:0px;fill:#000000;fill-opacity:1;stroke:none;stroke-width:1px;stroke-linecap:butt;stroke-linejoin:miter;stroke-opacity:1"
       transform="translate(-41.70649,-20.298946)">
      <path
         id="path6363"
         style="font-style:normal;font-variant:normal;font-weight:normal;font-stretch:normal;font-size:11.25px;font-family:Arial;-inkscape-font-specification:Arial;text-align:center;text-anchor:middle;fill:#725034;fill-opacity:1"
         d="m 317.32324,137.98944 1.00525,-0.0879 q 0.0714,0.60425 0.32959,0.99426 0.26367,0.38452 0.81299,0.62622 0.54932,0.23621 1.23596,0.23621 0.60974,0 1.07666,-0.18128 0.46692,-0.18127 0.69214,-0.49438 0.23071,-0.3186 0.23071,-0.69214 0,-0.37903 -0.21972,-0.65918 -0.21973,-0.28564 -0.7251,-0.47791 -0.3241,-0.12634 -1.43372,-0.39001 -1.10962,-0.26916 -1.55456,-0.50537 -0.57678,-0.30212 -0.86243,-0.74707 -0.28015,-0.45044 -0.28015,-1.00525 0,-0.60974 0.34607,-1.13709 0.34607,-0.53283 1.01074,-0.80749 0.66467,-0.27466 1.47766,-0.27466 0.89539,0 1.57654,0.29114 0.68665,0.28564 1.05469,0.84595 0.36804,0.5603 0.39551,1.26892 l -1.02173,0.0769 q -0.0824,-0.76355 -0.56031,-1.15356 -0.47241,-0.39002 -1.40075,-0.39002 -0.9668,0 -1.41175,0.35706 -0.43945,0.35156 -0.43945,0.85144 0,0.43396 0.31311,0.71411 0.30762,0.28015 1.60401,0.57678 1.30188,0.29114 1.78527,0.51087 0.70313,0.32409 1.03821,0.82397 0.33508,0.49439 0.33508,1.14258 0,0.6427 -0.36804,1.21399 -0.36804,0.56579 -1.06018,0.8844 -0.68664,0.31311 -1.54907,0.31311 -1.09314,0 -1.83472,-0.31861 -0.73608,-0.3186 -1.15905,-0.95581 -0.41749,-0.6427 -0.43946,-1.45019 z" />
      <path
         id="path6365"
         style="font-style:normal;font-variant:normal;font-weight:normal;font-stretch:normal;font-size:11.25px;font-family:Arial;-inkscape-font-specification:Arial;text-align:center;text-anchor:middle;fill:#725034;fill-opacity:1"
         d="m 324.87634,136.6546 q 0,-2.005 1.07666,-3.1366 1.07666,-1.13708 2.77954,-1.13708 1.11512,0 2.0105,0.53284 0.89539,0.53283 1.36231,1.48864 0.47241,0.95032 0.47241,2.15882 0,1.22497 -0.49439,2.19177 -0.49438,0.9668 -1.40075,1.46667 -0.90637,0.49439 -1.95557,0.49439 -1.13708,0 -2.03247,-0.54932 -0.89539,-0.54931 -1.35681,-1.49963 -0.46143,-0.95032 -0.46143,-2.0105 z m 1.09864,0.0165 q 0,1.45569 0.78002,2.29614 0.78553,0.83496 1.96656,0.83496 1.203,0 1.97754,-0.84594 0.78003,-0.84595 0.78003,-2.40052 0,-0.98327 -0.33509,-1.71386 -0.32959,-0.73609 -0.97229,-1.13709 -0.6372,-0.40649 -1.43371,-0.40649 -1.13159,0 -1.95008,0.78003 -0.81298,0.77453 -0.81298,2.59277 z" />
      <path
         id="path6367"
         style="font-style:normal;font-variant:normal;font-weight:normal;font-stretch:normal;font-size:11.25px;font-family:Arial;-inkscape-font-specification:Arial;text-align:center;text-anchor:middle;fill:#725034;fill-opacity:1"
         d="m 333.94556,140.57672 0,-8.05298 3.03772,0 q 0.802,0 1.22497,0.0769 0.59326,0.0989 0.99426,0.37902 0.40101,0.27466 0.6427,0.77454 0.2472,0.49988 0.2472,1.09863 0,1.02722 -0.65369,1.74134 -0.65369,0.70861 -2.36206,0.70861 l -2.06543,0 0,3.27393 -1.06567,0 z m 1.06567,-4.22424 2.08191,0 q 1.03271,0 1.46667,-0.38453 0.43396,-0.38452 0.43396,-1.08215 0,-0.50537 -0.25817,-0.86243 -0.25269,-0.36254 -0.67017,-0.4779 -0.26917,-0.0714 -0.99426,-0.0714 l -2.05994,0 0,2.87842 z" />
      <path
         id="path6369"
         style="font-style:normal;font-variant:normal;font-weight:normal;font-stretch:normal;font-size:11.25px;font-family:Arial;-inkscape-font-specification:Arial;text-align:center;text-anchor:middle;fill:#725034;fill-opacity:1"
         d="m 341.13611,136.6546 q 0,-2.005 1.07666,-3.1366 1.07666,-1.13708 2.77954,-1.13708 1.11511,0 2.0105,0.53284 0.89538,0.53283 1.3623,1.48864 0.47241,0.95032 0.47241,2.15882 0,1.22497 -0.49438,2.19177 -0.49439,0.9668 -1.40076,1.46667 -0.90637,0.49439 -1.95556,0.49439 -1.13709,0 -2.03247,-0.54932 -0.89539,-0.54931 -1.35682,-1.49963 -0.46142,-0.95032 -0.46142,-2.0105 z m 1.09863,0.0165 q 0,1.45569 0.78003,2.29614 0.78552,0.83496 1.96655,0.83496 1.20301,0 1.97754,-0.84594 0.78003,-0.84595 0.78003,-2.40052 0,-0.98327 -0.33508,-1.71386 -0.32959,-0.73609 -0.97229,-1.13709 -0.63721,-0.40649 -1.43372,-0.40649 -1.13159,0 -1.95007,0.78003 -0.81299,0.77453 -0.81299,2.59277 z" />
      <path
         id="path6371"
         style="font-style:normal;font-variant:normal;font-weight:normal;font-stretch:normal;font-size:11.25px;font-family:Arial;-inkscape-font-specification:Arial;text-align:center;text-anchor:middle;fill:#725034;fill-opacity:1"
         d="m 350.2218,140.57672 0,-8.05298 3.57056,0 q 1.07666,0 1.63696,0.21973 0.5603,0.21423 0.89539,0.76355 0.33508,0.54931 0.33508,1.21399 0,0.85693 -0.55481,1.4447 -0.55481,0.58777 -1.71387,0.74707 0.42298,0.20325 0.6427,0.401 0.46692,0.42847 0.8844,1.07117 l 1.40076,2.19177 -1.34033,0 -1.06568,-1.67542 q -0.46692,-0.72509 -0.76904,-1.10961 -0.30212,-0.38453 -0.54382,-0.53834 -0.23621,-0.1538 -0.4834,-0.21423 -0.18128,-0.0384 -0.59326,-0.0384 l -1.23596,0 0,3.57605 -1.06568,0 z m 1.06568,-4.4989 2.29064,0 q 0.7306,0 1.14258,-0.14832 0.41199,-0.15381 0.62622,-0.4834 0.21424,-0.33508 0.21424,-0.72509 0,-0.57129 -0.41748,-0.93933 -0.41199,-0.36805 -1.30738,-0.36805 l -2.54882,0 0,2.66419 z" />
    </g>
  </g>
</svg>
