<?xml version="1.0" encoding="UTF-8" standalone="no"?>
<svg
   xmlns:dc="http://purl.org/dc/elements/1.1/"
   xmlns:cc="http://creativecommons.org/ns#"
   xmlns:rdf="http://www.w3.org/1999/02/22-rdf-syntax-ns#"
   xmlns:svg="http://www.w3.org/2000/svg"
   xmlns="http://www.w3.org/2000/svg"
   version="1.1"
   id="svg2"
   viewBox="0 0 49.636234 8.3331301"
   height="2.3517945mm"
   width="14.008448mm">
  <defs
     id="defs4" />
  <metadata
     id="metadata7">
    <rdf:RDF>
      <cc:Work
         rdf:about="">
        <dc:format>image/svg+xml</dc:format>
        <dc:type
           rdf:resource="http://purl.org/dc/dcmitype/StillImage" />
        <dc:title></dc:title>
      </cc:Work>
    </rdf:RDF>
  </metadata>
  <g
     transform="translate(-270.65643,-112.08197)"
     id="layer1">
    <g
       id="flowRoot4136"
       style="font-style:normal;font-weight:normal;font-size:40px;line-height:125%;font-family:sans-serif;letter-spacing:0px;word-spacing:0px;fill:#000000;fill-opacity:1;stroke:none;stroke-width:1px;stroke-linecap:butt;stroke-linejoin:miter;stroke-opacity:1"
       transform="translate(-41.70649,-20.298946)">
      <path
         id="path6421"
         style="font-style:normal;font-variant:normal;font-weight:normal;font-stretch:normal;font-size:11.25px;font-family:Arial;-inkscape-font-specification:Arial;text-align:center;text-anchor:middle;fill:#725034;fill-opacity:1"
         d="m 312.36292,140.57672 0,-0.98877 4.12536,-5.15808 q 0.43945,-0.54932 0.83496,-0.95581 l -4.49341,0 0,-0.95032 5.76783,0 0,0.95032 -4.52088,5.58655 -0.48889,0.56579 5.1416,0 0,0.95032 -6.36657,0 z" />
      <path
         id="path6423"
         style="font-style:normal;font-variant:normal;font-weight:normal;font-stretch:normal;font-size:11.25px;font-family:Arial;-inkscape-font-specification:Arial;text-align:center;text-anchor:middle;fill:#725034;fill-opacity:1"
         d="m 319.55896,136.6546 q 0,-2.005 1.07666,-3.1366 1.07666,-1.13708 2.77954,-1.13708 1.11511,0 2.0105,0.53284 0.89538,0.53283 1.3623,1.48864 0.47242,0.95032 0.47242,2.15882 0,1.22497 -0.49439,2.19177 -0.49438,0.9668 -1.40076,1.46667 -0.90637,0.49439 -1.95556,0.49439 -1.13709,0 -2.03247,-0.54932 -0.89539,-0.54931 -1.35681,-1.49963 -0.46143,-0.95032 -0.46143,-2.0105 z m 1.09863,0.0165 q 0,1.45569 0.78003,2.29614 0.78552,0.83496 1.96655,0.83496 1.20301,0 1.97754,-0.84594 0.78003,-0.84595 0.78003,-2.40052 0,-0.98327 -0.33508,-1.71386 -0.32959,-0.73609 -0.97229,-1.13709 -0.63721,-0.40649 -1.43372,-0.40649 -1.13159,0 -1.95007,0.78003 -0.81299,0.77453 -0.81299,2.59277 z" />
      <path
         id="path6425"
         style="font-style:normal;font-variant:normal;font-weight:normal;font-stretch:normal;font-size:11.25px;font-family:Arial;-inkscape-font-specification:Arial;text-align:center;text-anchor:middle;fill:#725034;fill-opacity:1"
         d="m 328.64465,140.57672 0,-8.05298 3.57056,0 q 1.07666,0 1.63696,0.21973 0.56031,0.21423 0.89539,0.76355 0.33508,0.54931 0.33508,1.21399 0,0.85693 -0.55481,1.4447 -0.55481,0.58777 -1.71387,0.74707 0.42298,0.20325 0.64271,0.401 0.46691,0.42847 0.88439,1.07117 l 1.40076,2.19177 -1.34033,0 -1.06567,-1.67542 q -0.46692,-0.72509 -0.76905,-1.10961 -0.30212,-0.38453 -0.54382,-0.53834 -0.23621,-0.1538 -0.4834,-0.21423 -0.18127,-0.0384 -0.59326,-0.0384 l -1.23596,0 0,3.57605 -1.06568,0 z m 1.06568,-4.4989 2.29065,0 q 0.73059,0 1.14257,-0.14832 0.41199,-0.15381 0.62623,-0.4834 0.21423,-0.33508 0.21423,-0.72509 0,-0.57129 -0.41748,-0.93933 -0.41199,-0.36805 -1.30737,-0.36805 l -2.54883,0 0,2.66419 z" />
      <path
         id="path6427"
         style="font-style:normal;font-variant:normal;font-weight:normal;font-stretch:normal;font-size:11.25px;font-family:Arial;-inkscape-font-specification:Arial;text-align:center;text-anchor:middle;fill:#725034;fill-opacity:1"
         d="m 336.93933,140.57672 0,-8.05298 1.06567,0 0,8.05298 -1.06567,0 z" />
      <path
         id="path6429"
         style="font-style:normal;font-variant:normal;font-weight:normal;font-stretch:normal;font-size:11.25px;font-family:Arial;-inkscape-font-specification:Arial;text-align:center;text-anchor:middle;fill:#725034;fill-opacity:1"
         d="m 339.83423,140.57672 0,-8.05298 1.06567,0 0,7.10266 3.96607,0 0,0.95032 -5.03174,0 z" />
      <path
         id="path6431"
         style="font-style:normal;font-variant:normal;font-weight:normal;font-stretch:normal;font-size:11.25px;font-family:Arial;-inkscape-font-specification:Arial;text-align:center;text-anchor:middle;fill:#725034;fill-opacity:1"
         d="m 345.81628,136.6546 q 0,-2.005 1.07666,-3.1366 1.07666,-1.13708 2.77955,-1.13708 1.11511,0 2.01049,0.53284 0.89539,0.53283 1.36231,1.48864 0.47241,0.95032 0.47241,2.15882 0,1.22497 -0.49438,2.19177 -0.49439,0.9668 -1.40076,1.46667 -0.90637,0.49439 -1.95557,0.49439 -1.13708,0 -2.03247,-0.54932 -0.89538,-0.54931 -1.35681,-1.49963 -0.46143,-0.95032 -0.46143,-2.0105 z m 1.09864,0.0165 q 0,1.45569 0.78003,2.29614 0.78552,0.83496 1.96655,0.83496 1.203,0 1.97754,-0.84594 0.78003,-0.84595 0.78003,-2.40052 0,-0.98327 -0.33509,-1.71386 -0.32959,-0.73609 -0.97229,-1.13709 -0.6372,-0.40649 -1.43371,-0.40649 -1.13159,0 -1.95007,0.78003 -0.81299,0.77453 -0.81299,2.59277 z" />
      <path
         id="path6433"
         style="font-style:normal;font-variant:normal;font-weight:normal;font-stretch:normal;font-size:11.25px;font-family:Arial;-inkscape-font-specification:Arial;text-align:center;text-anchor:middle;fill:#725034;fill-opacity:1"
         d="m 354.90198,140.57672 0,-8.05298 3.57055,0 q 1.07666,0 1.63697,0.21973 0.5603,0.21423 0.89538,0.76355 0.33509,0.54931 0.33509,1.21399 0,0.85693 -0.55481,1.4447 -0.55481,0.58777 -1.71387,0.74707 0.42297,0.20325 0.6427,0.401 0.46692,0.42847 0.8844,1.07117 l 1.40076,2.19177 -1.34034,0 -1.06567,-1.67542 q -0.46692,-0.72509 -0.76904,-1.10961 -0.30213,-0.38453 -0.54383,-0.53834 -0.2362,-0.1538 -0.4834,-0.21423 -0.18127,-0.0384 -0.59326,-0.0384 l -1.23596,0 0,3.57605 -1.06567,0 z m 1.06567,-4.4989 2.29065,0 q 0.73059,0 1.14258,-0.14832 0.41199,-0.15381 0.62622,-0.4834 0.21423,-0.33508 0.21423,-0.72509 0,-0.57129 -0.41748,-0.93933 -0.41198,-0.36805 -1.30737,-0.36805 l -2.54883,0 0,2.66419 z" />
    </g>
  </g>
</svg>
